<svg width="40" height="40" viewBox="0 0 40 40" xmlns="http://www.w3.org/2000/svg"><g fill="none" fill-rule="evenodd"><circle cx="20" cy="20" r="20" fill="#87D5EE"/><g stroke="#3E3832" stroke-linejoin="round"><path d="M20.001 24.156c1.5 0 5-1.951 5-4.877 1.5 0 1.5-2.927 0-2.927l-.5-2.438c-4 0-4-1.464-4.5-1.951-.5.487-.5 1.95-4.5 1.95l-.5 2.44c-1.5 0-1.5 2.926 0 2.926 0 2.926 3.5 4.877 5 4.877h0z" stroke-linecap="round"/><path d="M25.99 17.085l.511-3.66s.5-4.876-6.5-4.876-6.5 4.877-6.5 4.877l.511 3.659M17.457 23.195l-6.36 1.698c-1.562.57-2.596 2.025-2.596 3.652v2.439h23v-2.439c0-1.627-1.034-3.081-2.596-3.652l-6.341-1.713" stroke-linecap="round"/><path d="M17.001 17.33c0-.54.447-.488 1-.488.553 0 1-.051 1 .488M21.001 17.33c0-.54.447-.488 1-.488.553 0 1-.051 1 .488" stroke-linecap="round"/><path d="M20.001 26.594l-3 4.39h6zM18.501 23.668v1.463c0 .809.672 1.463 1.5 1.463s1.5-.654 1.5-1.463v-1.463M25.501 28.058h3.5"/></g></g></svg>
