<svg width="96" height="96" viewBox="0 0 96 96" fill="none" xmlns="http://www.w3.org/2000/svg">
    <rect x="16" y="36" width="64" height="24" fill="#FFECCC"/>
    <rect x="60" y="16" width="64" height="24" transform="rotate(90 60 16)" fill="#FFECCC"/>
    <circle cx="50.3637" cy="75.1818" r="8.68182" stroke="#262626" stroke-width="3"/>
    <path d="M12.1818 36H7.09091C4.27928 36 2 38.2793 2 41.0909V56.3636C2 63.3927 7.6982 69.0909 14.7273 69.0909V69.0909C21.7564 69.0909 27.4546 63.3927 27.4546 56.3637V41.0909C27.4546 38.2793 25.1753 36 22.3636 36H17.2727" stroke="#262626" stroke-width="3"/>
    <path d="M14.7275 67.5454V87.909C14.7275 90.7207 17.0068 93 19.8185 93V93C22.6301 93 24.9094 90.7207 24.9094 87.9091V84.0909C24.9094 79.1705 28.8981 75.1818 33.8185 75.1818H42.7276" stroke="#262626" stroke-width="3"/>
    <mask id="path-6-inside-1_110_3232" fill="white">
        <rect x="48" y="5.9999" width="48" height="42" rx="2"/>
    </mask>
    <rect x="48" y="5.9999" width="48" height="42" rx="2" stroke="#262626" stroke-width="6" mask="url(#path-6-inside-1_110_3232)"/>
    <line x1="50.0001" y1="22.4999" x2="94.0001" y2="22.4999" stroke="#262626" stroke-width="3"/>
    <path d="M62.0001 2L62.0001 14" stroke="#262626" stroke-width="3" stroke-linecap="round"/>
    <path d="M62.0001 29.9999L58.0001 29.9999" stroke="#262626" stroke-width="3" stroke-linecap="round"/>
    <path d="M62.0001 38L58.0001 38" stroke="#262626" stroke-width="3" stroke-linecap="round"/>
    <path d="M74.0001 29.9999L70.0001 29.9999" stroke="#262626" stroke-width="3" stroke-linecap="round"/>
    <path d="M74.0001 38L70.0001 38" stroke="#262626" stroke-width="3" stroke-linecap="round"/>
    <path d="M86.0001 29.9999L82.0001 29.9999" stroke="#262626" stroke-width="3" stroke-linecap="round"/>
    <path d="M86.0001 38L82.0001 38" stroke="#262626" stroke-width="3" stroke-linecap="round"/>
    <path d="M81.9999 2L81.9999 14" stroke="#262626" stroke-width="3" stroke-linecap="round"/>
</svg>
