<?xml version="1.0" encoding="UTF-8"?>
<svg width="134px" height="101px" viewBox="0 0 134 101" version="1.1" xmlns="http://www.w3.org/2000/svg" xmlns:xlink="http://www.w3.org/1999/xlink">
    <!-- Generator: Sketch 47.1 (45422) - http://www.bohemiancoding.com/sketch -->
    <title>Dialogmøte nav</title>
    <desc>Created with Sketch.</desc>
    <defs></defs>
    <g id="Landingssiden" stroke="none" stroke-width="1" fill="none" fill-rule="evenodd">
        <g id="Illustrasjoner-til-landingssiden" transform="translate(-96.000000, -862.000000)">
            <g id="Dialogmøte-nav" transform="translate(97.000000, 862.000000)">
                <polygon id="Fill-36" stroke="#525759" fill="#525759" stroke-linecap="round" points="0 100 131.578947 100 131.578947 95.7894737 0 95.7894737"></polygon>
                <g id="Kalender-med-hake" transform="translate(62.105263, 0.000000)">
                    <polygon id="Fill-508" fill="#C32127" points="0.0204631579 14.7368421 0.0204631579 14.7368421 0 4.21052632"></polygon>
                    <path d="M47.4213619,9.97488677 C46.2984651,9.97732442 45.3852733,9.06807982 45.3840541,7.94554056 C45.3816156,6.82300131 46.2899306,5.91131905 47.4128273,5.90888139 C48.5369433,5.90644374 49.4489159,6.81446952 49.4513543,7.93700878 C49.4537928,9.06076686 48.5454778,9.97244912 47.4213619,9.97488677 M12.5823016,10.0467975 C11.4581856,10.0492352 10.546213,9.13999058 10.5437746,8.01745133 C10.5413361,6.89369325 11.4496511,5.98201099 12.573767,5.97957333 C13.6966638,5.97713568 14.6098556,6.88516146 14.612294,8.00891954 C14.6147325,9.1314588 13.7051983,10.0443599 12.5823016,10.0467975 M57.5908317,0.302279259 C57.1238725,0.106048184 56.6118023,-0.00120855208 56.0741286,1.02744707e-05 L3.88930068,0.106048184 C1.7361675,0.110923491 -0.00365188756,1.85872077 5.7565706e-06,4.00994963 L0.0219516213,14.7368421 L60,14.6137406 L59.9792733,3.88806697 C59.9756157,2.27434062 58.9904902,0.890972483 57.5908317,0.302279259" id="Fill-509" fill="#CC2027"></path>
                    <path d="M0,14.8615681 L0.0255816743,27.3378714 L0.073090498,50.797471 C0.0767450229,52.9770885 1.82360792,54.740541 3.97490492,54.7368363 L56.1127935,54.6281641 C58.2640905,54.6232245 60.0048625,52.8523625 59.9999898,50.672745 L59.9683172,34.6942348 L59.9268993,14.7368421 L0,14.8615681 Z" id="Fill-510" fill="#EAEAE2"></path>
                    <path d="M14.7368421,14.7368421 L14.8052632,54.7368421" id="Stroke-511" stroke="#878787" stroke-width="1.883"></path>
                    <path d="M30.5263158,14.7368421 L30.5957895,54.7368421" id="Stroke-512" stroke="#878787" stroke-width="1.883"></path>
                    <path d="M45.2631579,14.7368421 L45.3315789,54.7368421" id="Stroke-513" stroke="#878787" stroke-width="1.883"></path>
                    <path d="M0,23.2642105 L60,23.1578947" id="Stroke-514" stroke="#878787" stroke-width="1.883"></path>
                    <path d="M0,33.7905263 L60,33.6842105" id="Stroke-515" stroke="#878787" stroke-width="1.883"></path>
                    <path d="M0,43.2642105 L60,43.1578947" id="Stroke-516" stroke="#878787" stroke-width="1.883"></path>
                    <path d="M20.9426852,42.1052632 C20.5871256,42.1052632 20.2486719,41.9456202 20.0152977,41.6620944 L17.1378305,38.1703844 C16.697963,37.6365384 16.7553901,36.830661 17.2661253,36.3721665 C17.7756385,35.9111177 18.5466287,35.9724206 18.9864963,36.5062665 L20.8583772,38.7770275 L26.2125433,31.0528643 C26.6084241,30.4832583 27.3708613,30.355544 27.9170302,30.7693385 C28.4619773,31.1818558 28.5841627,31.9800704 28.1895037,32.5496763 L21.9274998,41.5790801 C21.7087879,41.8945345 21.364225,42.0873832 20.9915594,42.1052632 L20.9426852,42.1052632" id="Fill-517" fill="#32AC66"></path>
                </g>
                <g id="Group-4" transform="translate(8.421053, 38.947368)">
                    <g id="Blyantholder" transform="translate(0.000000, 0.800915)">
                        <polygon id="Fill-461" fill="#E2D1B6" points="6.65569809 17.0404645 3.17266045 11.3552629 1.51403505 17.8126224 4.29456043 18.1237566"></polygon>
                        <polygon id="Fill-462" fill="#E9C264" points="9.12130417 48.2152032 10.8367059 47.9563033 6.25599283 17.4114031 4.54210516 17.667275"></polygon>
                        <polygon id="Fill-463" fill="#DAB25B" points="3.0280701 18.4265636 7.6065121 48.9699497 9.32039978 48.7155918 4.74120077 18.1684206"></polygon>
                        <polygon id="Fill-464" fill="#E9C264" points="7.8093928 48.7118067 3.2309508 18.1684206 1.51403505 18.4250496 6.09626214 48.9684357"></polygon>
                        <path d="M5.63826653,16.6585881 C5.31653409,16.7062802 5.15983146,17.1521635 4.73363059,17.214996 C4.65944287,17.2240802 4.59888147,17.2195381 4.54210516,17.2066688 L4.61780691,17.7153846 L6.33169459,17.4587556 L6.25977792,16.9848626 C6.25977792,16.9848626 5.96227003,16.610896 5.63826653,16.6585881" id="Fill-465" fill="#E9C264"></path>
                        <path d="M4.74120077,17.7330917 C4.44596393,17.6679882 4.27412095,17.3545829 3.81991044,17.4204435 C3.36342887,17.4893321 3.29378326,17.8398312 3.0280701,17.9919917 L3.10452887,18.5007075 L4.81765954,18.2418075 L4.74120077,17.7330917 Z" id="Fill-466" fill="#DAB25B"></path>
                        <path d="M3.22035256,17.6177429 C3.17114642,17.6465096 3.11134203,17.6677061 3.04018238,17.6790614 C2.60943941,17.7418938 2.33312802,17.3679272 2.00912451,17.4156193 C1.68814908,17.4610403 1.51403505,17.9091947 1.51403505,17.9091947 L1.57913856,18.3830877 L3.29681133,18.1264587 L3.22035256,17.6177429 Z" id="Fill-467" fill="#E9C264"></path>
                        <polygon id="Fill-468" fill="#545757" points="2.85774116 11.3552629 2.27105258 13.6406988 4.08789464 13.3681725"></polygon>
                        <path d="M16.0563706,35.601475 L21.1889494,36.7907495 C21.6181784,36.8884048 21.8891906,37.3191478 21.7847222,37.7514048 L21.0958363,40.7363249 C20.99591,41.1670679 20.565167,41.4342951 20.135181,41.3366398 L15.0041162,40.1473653 C14.5756443,40.0474389 14.304632,39.616696 14.4038013,39.18671 L15.0972294,36.2010329 C15.1971557,35.7687759 15.6263847,35.4992777 16.0563706,35.601475" id="Fill-469" fill="#C52C35"></path>
                        <polygon id="Fill-470" fill="#E2D1B6" points="26.3381538 6.45206037 24.663631 0 21.1964907 5.6844446 23.7665652 6.79574633"></polygon>
                        <polygon id="Fill-471" fill="#B0CAC9" points="20.4394732 37.3671421 22.1526039 37.6215 26.6833538 7.06751562 24.9694661 6.81315773"></polygon>
                        <polygon id="Fill-472" fill="#98B5B4" points="22.6984135 6.81315773 18.1684206 37.3671421 19.8830653 37.622257 24.4138152 7.06978668"></polygon>
                        <polygon id="Fill-473" fill="#B0CAC9" points="18.3705443 36.8644825 22.9028082 6.3104981 21.1858925 6.05614021 16.6543856 36.6101246"></polygon>
                        <path d="M25.5092196,6.06069976 C25.1874871,6.01073661 24.9073906,6.38924537 24.4774047,6.3256559 C24.4077591,6.31505765 24.3509828,6.29310414 24.3002626,6.26282344 L24.2245608,6.77153922 L25.9376915,7.02589711 L26.0096082,6.55200414 C26.0096082,6.55200414 25.831709,6.10839187 25.5092196,6.06069976" id="Fill-474" fill="#B0CAC9"></path>
                        <path d="M24.4993582,5.87625798 C24.2366731,5.72863956 24.1670275,5.37586939 23.7105459,5.30849483 C23.2517933,5.24112027 23.0822214,5.55679658 22.7884986,5.62417114 L22.7105258,6.1321299 L24.4251705,6.38497376 L24.4993582,5.87625798 Z" id="Fill-475" fill="#98B5B4"></path>
                        <path d="M22.9875942,5.85330065 C22.9293038,5.86692696 22.8679854,5.868441 22.8006109,5.85784275 C22.3683539,5.79425328 22.2139223,5.35594013 21.8899188,5.3029489 C21.5659153,5.25752785 21.2684074,5.63149451 21.2684074,5.63149451 L21.1964907,6.10765853 L22.9134065,6.35974537 L22.9875942,5.85330065 Z" id="Fill-476" fill="#B0CAC9"></path>
                        <polygon id="Fill-477" fill="#545757" points="24.6931547 0 23.4675433 2.0129096 25.2843854 2.28467889"></polygon>
                        <polygon id="Fill-478" fill="#545757" points="15.3515584 36.3368412 22.0405653 37.8864561 21.8301144 38.8001763 15.1403505 37.2475333"></polygon>
                        <polygon id="Fill-479" fill="#E2D1B6" points="18.0624382 22.9005372 15.7346093 16.6543856 12.8692979 22.6704039 15.5385417 23.5091793"></polygon>
                        <polygon id="Fill-480" fill="#97AB48" points="15.1403505 39.1491614 16.8731636 39.2233491 17.5226847 23.5432451 15.7921426 23.4675433"></polygon>
                        <polygon id="Fill-481" fill="#727D31" points="14.2758365 23.4675433 13.6263155 39.1468903 15.3545865 39.2248631 16.0063786 23.5440021"></polygon>
                        <polygon id="Fill-482" fill="#97AB48" points="13.8428225 39.2248631 14.4923435 23.5455161 12.7625585 23.4675433 12.1122804 39.1506754"></polygon>
                        <path d="M17.104054,22.7109386 C16.7777794,22.6957982 16.54159,23.1023166 16.1070619,23.0811201 C16.0366593,23.076578 15.9760979,23.0629517 15.9215926,23.0394842 L15.897368,23.5527421 L17.6301812,23.6284438 L17.6544057,23.1507657 C17.6544057,23.1507657 17.4310856,22.7245649 17.104054,22.7109386" id="Fill-483" fill="#97AB48"></path>
                        <path d="M16.1358286,23.1943454 C15.8549751,23.0701945 15.7505066,22.7310507 15.29024,22.7113682 C14.8284593,22.6916858 14.6921961,23.0225024 14.4052865,23.1156156 L14.383333,23.6334156 L16.1138751,23.7076033 L16.1358286,23.1943454 Z" id="Fill-484" fill="#727D31"></path>
                        <path d="M14.6233075,23.1385813 C14.5665312,23.1582638 14.5059698,23.1711331 14.4363242,23.166591 C13.9995251,23.1491796 13.7989155,22.7207077 13.4726409,22.7108664 C13.1448523,22.6972401 12.8882234,23.0969454 12.8882234,23.0969454 L12.8692979,23.5753804 L14.601354,23.6563813 L14.6233075,23.1385813 Z" id="Fill-485" fill="#97AB48"></path>
                        <polygon id="Fill-486" fill="#545757" points="15.3992505 16.6543856 14.383333 18.7831189 16.2251566 18.8656338"></polygon>
                        <polygon id="Fill-487" fill="#C30000" points="23.6340872 31.7947361 0 31.7947361 2.83275958 56.1593452 20.7967855 56.1593452"></polygon>
                    </g>
                </g>
            </g>
        </g>
    </g>
</svg>
