<?xml version="1.0" encoding="UTF-8"?>
<svg width="134px" height="101px" viewBox="0 0 134 101" version="1.1" xmlns="http://www.w3.org/2000/svg" xmlns:xlink="http://www.w3.org/1999/xlink">
    <!-- Generator: Sketch 47.1 (45422) - http://www.bohemiancoding.com/sketch -->
    <title>Dialogmøte med AG</title>
    <desc>Created with Sketch.</desc>
    <defs></defs>
    <g id="Landingssiden" stroke="none" stroke-width="1" fill="none" fill-rule="evenodd">
        <g id="Illustrasjoner-til-landingssiden" transform="translate(-102.000000, -502.000000)">
            <g id="Dialogmøte-med-AG" transform="translate(103.000000, 502.000000)">
                <polygon id="Fill-36" stroke="#525759" fill="#525759" stroke-linecap="round" points="0 100 131.578947 100 131.578947 95.7894737 0 95.7894737"></polygon>
                <g id="Group-4" transform="translate(8.421053, 0.000000)">
                    <g id="Tavle-med-postits" transform="translate(41.617086, 0.000000)">
                        <polygon id="Fill-412" fill="#EFEFEF" points="0 77.726926 75.6102212 77.726926 75.6102212 0 0 0"></polygon>
                        <path d="M8.733791,5.79900839 C8.733791,7.42086194 7.41800153,8.73474447 5.79614798,8.73474447 C4.17334096,8.73474447 2.8604119,7.42086194 2.8604119,5.79900839 C2.8604119,4.17906178 4.17334096,2.8604119 5.79614798,2.8604119 C7.41800153,2.8604119 8.733791,4.17906178 8.733791,5.79900839" id="Fill-414" fill="#838688"></path>
                        <path d="M73.5678871,5.79900839 C73.5678871,7.42086194 72.2540046,8.73474447 70.632151,8.73474447 C69.0074371,8.73474447 67.696415,7.42086194 67.696415,5.79900839 C67.696415,4.17906178 69.0074371,2.8604119 70.632151,2.8604119 C72.2540046,2.8604119 73.5678871,4.17906178 73.5678871,5.79900839" id="Fill-415" fill="#838688"></path>
                        <path d="M32.9120776,56.5160183 C35.5617725,57.0318459 14.3480043,56.1517925 11.419896,56.5160183 C8.49464813,56.8831045 9.84666949,38.1388253 9.84666949,38.1388253 L31.338851,38.1388253 C31.338851,38.1388253 30.2566619,56.0059115 32.9120776,56.5160183" id="Fill-416" fill="#E9C264"></path>
                        <path d="M31.1956522,53.3943555 L9.53470633,53.3943555 C9.81598017,55.2869947 10.2879481,56.5493898 11.0659802,56.4549962 C13.9940885,56.08791 35.2078566,56.9679634 32.5581617,56.4549962 C31.8935927,56.3281846 31.4683448,55.1258581 31.1956522,53.3943555" id="Fill-417" fill="#DAB25B"></path>
                        <path d="M64.3753876,45.0753242 C67.0222221,45.5873379 45.8113144,44.7101449 42.885113,45.0753242 C39.9579582,45.4424104 41.3118865,26.6971777 41.3118865,26.6971777 L62.8012076,26.6971777 C62.8012076,26.6971777 61.7228323,44.5642639 64.3753876,45.0753242" id="Fill-418" fill="#E9C264"></path>
                        <path d="M62.6601831,41.9527079 L40.9992372,41.9527079 C41.2805111,43.8482075 41.7515256,45.1125095 42.532418,45.016209 C45.4586194,44.6491228 66.6695271,45.5263158 64.0226926,45.016209 C63.3581236,44.8855835 62.9300153,43.6870709 62.6601831,41.9527079" id="Fill-419" fill="#DAB25B"></path>
                        <path d="M38.630041,26.9612891 C41.2825963,27.4713959 20.0688281,26.5942029 17.1407198,26.9612891 C14.2154719,27.3236079 15.5674933,8.5812357 15.5674933,8.5812357 L37.0568144,8.5812357 C37.0568144,8.5812357 35.9774857,26.4483219 38.630041,26.9612891" id="Fill-420" fill="#E9C264"></path>
                        <path d="M36.916476,23.8367658 L15.2555301,23.8367658 C15.536804,25.729405 16.0078185,26.9946606 16.786804,26.8974066 C19.7149123,26.5303204 40.9286804,27.4075133 38.2761251,26.8974066 C37.6144165,26.7696415 37.1863082,25.5663616 36.916476,23.8367658" id="Fill-421" fill="#DAB25B"></path>
                    </g>
                    <g id="Blyantholder" transform="translate(0.000000, 39.748284)">
                        <polygon id="Fill-461" fill="#E2D1B6" points="6.65569809 17.0404645 3.17266045 11.3552629 1.51403505 17.8126224 4.29456043 18.1237566"></polygon>
                        <polygon id="Fill-462" fill="#E9C264" points="9.12130417 48.2152032 10.8367059 47.9563033 6.25599283 17.4114031 4.54210516 17.667275"></polygon>
                        <polygon id="Fill-463" fill="#DAB25B" points="3.0280701 18.4265636 7.6065121 48.9699497 9.32039978 48.7155918 4.74120077 18.1684206"></polygon>
                        <polygon id="Fill-464" fill="#E9C264" points="7.8093928 48.7118067 3.2309508 18.1684206 1.51403505 18.4250496 6.09626214 48.9684357"></polygon>
                        <path d="M5.63826653,16.6585881 C5.31653409,16.7062802 5.15983146,17.1521635 4.73363059,17.214996 C4.65944287,17.2240802 4.59888147,17.2195381 4.54210516,17.2066688 L4.61780691,17.7153846 L6.33169459,17.4587556 L6.25977792,16.9848626 C6.25977792,16.9848626 5.96227003,16.610896 5.63826653,16.6585881" id="Fill-465" fill="#E9C264"></path>
                        <path d="M4.74120077,17.7330917 C4.44596393,17.6679882 4.27412095,17.3545829 3.81991044,17.4204435 C3.36342887,17.4893321 3.29378326,17.8398312 3.0280701,17.9919917 L3.10452887,18.5007075 L4.81765954,18.2418075 L4.74120077,17.7330917 Z" id="Fill-466" fill="#DAB25B"></path>
                        <path d="M3.22035256,17.6177429 C3.17114642,17.6465096 3.11134203,17.6677061 3.04018238,17.6790614 C2.60943941,17.7418938 2.33312802,17.3679272 2.00912451,17.4156193 C1.68814908,17.4610403 1.51403505,17.9091947 1.51403505,17.9091947 L1.57913856,18.3830877 L3.29681133,18.1264587 L3.22035256,17.6177429 Z" id="Fill-467" fill="#E9C264"></path>
                        <polygon id="Fill-468" fill="#545757" points="2.85774116 11.3552629 2.27105258 13.6406988 4.08789464 13.3681725"></polygon>
                        <path d="M16.0563706,35.601475 L21.1889494,36.7907495 C21.6181784,36.8884048 21.8891906,37.3191478 21.7847222,37.7514048 L21.0958363,40.7363249 C20.99591,41.1670679 20.565167,41.4342951 20.135181,41.3366398 L15.0041162,40.1473653 C14.5756443,40.0474389 14.304632,39.616696 14.4038013,39.18671 L15.0972294,36.2010329 C15.1971557,35.7687759 15.6263847,35.4992777 16.0563706,35.601475" id="Fill-469" fill="#C52C35"></path>
                        <polygon id="Fill-470" fill="#E2D1B6" points="26.3381538 6.45206037 24.663631 0 21.1964907 5.6844446 23.7665652 6.79574633"></polygon>
                        <polygon id="Fill-471" fill="#B0CAC9" points="20.4394732 37.3671421 22.1526039 37.6215 26.6833538 7.06751562 24.9694661 6.81315773"></polygon>
                        <polygon id="Fill-472" fill="#98B5B4" points="22.6984135 6.81315773 18.1684206 37.3671421 19.8830653 37.622257 24.4138152 7.06978668"></polygon>
                        <polygon id="Fill-473" fill="#B0CAC9" points="18.3705443 36.8644825 22.9028082 6.3104981 21.1858925 6.05614021 16.6543856 36.6101246"></polygon>
                        <path d="M25.5092196,6.06069976 C25.1874871,6.01073661 24.9073906,6.38924537 24.4774047,6.3256559 C24.4077591,6.31505765 24.3509828,6.29310414 24.3002626,6.26282344 L24.2245608,6.77153922 L25.9376915,7.02589711 L26.0096082,6.55200414 C26.0096082,6.55200414 25.831709,6.10839187 25.5092196,6.06069976" id="Fill-474" fill="#B0CAC9"></path>
                        <path d="M24.4993582,5.87625798 C24.2366731,5.72863956 24.1670275,5.37586939 23.7105459,5.30849483 C23.2517933,5.24112027 23.0822214,5.55679658 22.7884986,5.62417114 L22.7105258,6.1321299 L24.4251705,6.38497376 L24.4993582,5.87625798 Z" id="Fill-475" fill="#98B5B4"></path>
                        <path d="M22.9875942,5.85330065 C22.9293038,5.86692696 22.8679854,5.868441 22.8006109,5.85784275 C22.3683539,5.79425328 22.2139223,5.35594013 21.8899188,5.3029489 C21.5659153,5.25752785 21.2684074,5.63149451 21.2684074,5.63149451 L21.1964907,6.10765853 L22.9134065,6.35974537 L22.9875942,5.85330065 Z" id="Fill-476" fill="#B0CAC9"></path>
                        <polygon id="Fill-477" fill="#545757" points="24.6931547 0 23.4675433 2.0129096 25.2843854 2.28467889"></polygon>
                        <polygon id="Fill-478" fill="#545757" points="15.3515584 36.3368412 22.0405653 37.8864561 21.8301144 38.8001763 15.1403505 37.2475333"></polygon>
                        <polygon id="Fill-479" fill="#E2D1B6" points="18.0624382 22.9005372 15.7346093 16.6543856 12.8692979 22.6704039 15.5385417 23.5091793"></polygon>
                        <polygon id="Fill-480" fill="#97AB48" points="15.1403505 39.1491614 16.8731636 39.2233491 17.5226847 23.5432451 15.7921426 23.4675433"></polygon>
                        <polygon id="Fill-481" fill="#727D31" points="14.2758365 23.4675433 13.6263155 39.1468903 15.3545865 39.2248631 16.0063786 23.5440021"></polygon>
                        <polygon id="Fill-482" fill="#97AB48" points="13.8428225 39.2248631 14.4923435 23.5455161 12.7625585 23.4675433 12.1122804 39.1506754"></polygon>
                        <path d="M17.104054,22.7109386 C16.7777794,22.6957982 16.54159,23.1023166 16.1070619,23.0811201 C16.0366593,23.076578 15.9760979,23.0629517 15.9215926,23.0394842 L15.897368,23.5527421 L17.6301812,23.6284438 L17.6544057,23.1507657 C17.6544057,23.1507657 17.4310856,22.7245649 17.104054,22.7109386" id="Fill-483" fill="#97AB48"></path>
                        <path d="M16.1358286,23.1943454 C15.8549751,23.0701945 15.7505066,22.7310507 15.29024,22.7113682 C14.8284593,22.6916858 14.6921961,23.0225024 14.4052865,23.1156156 L14.383333,23.6334156 L16.1138751,23.7076033 L16.1358286,23.1943454 Z" id="Fill-484" fill="#727D31"></path>
                        <path d="M14.6233075,23.1385813 C14.5665312,23.1582638 14.5059698,23.1711331 14.4363242,23.166591 C13.9995251,23.1491796 13.7989155,22.7207077 13.4726409,22.7108664 C13.1448523,22.6972401 12.8882234,23.0969454 12.8882234,23.0969454 L12.8692979,23.5753804 L14.601354,23.6563813 L14.6233075,23.1385813 Z" id="Fill-485" fill="#97AB48"></path>
                        <polygon id="Fill-486" fill="#545757" points="15.3992505 16.6543856 14.383333 18.7831189 16.2251566 18.8656338"></polygon>
                        <polygon id="Fill-487" fill="#50808B" points="23.6340872 31.7947361 0 31.7947361 2.83275958 56.1593452 20.7967855 56.1593452"></polygon>
                    </g>
                </g>
            </g>
        </g>
    </g>
</svg>
