<?xml version="1.0" encoding="UTF-8"?>
<svg width="128px" height="101px" viewBox="0 0 128 101" version="1.1" xmlns="http://www.w3.org/2000/svg" xmlns:xlink="http://www.w3.org/1999/xlink">
    <!-- Generator: Sketch 47.1 (45422) - http://www.bohemiancoding.com/sketch -->
    <title>Lagtidssyk</title>
    <desc>Created with Sketch.</desc>
    <defs></defs>
    <g id="Landingssiden" stroke="none" stroke-width="1" fill="none" fill-rule="evenodd">
        <g id="Illustrasjoner-til-landingssiden" transform="translate(-104.000000, -1040.000000)">
            <g id="Lagtidssyk" transform="translate(105.000000, 1040.000000)">
                <g id="Group-2" transform="translate(54.545455, 0.000000)" fill="#BDD1D0">
                    <path d="M5.87293542,46.0631064 C5.14595196,47.232748 5.50313178,48.7714764 6.67269148,49.4985108 C7.8415086,50.2270304 9.38012936,49.8683403 10.1078554,48.6994414 C10.836324,47.5297998 10.477659,45.9910714 9.30809934,45.264037 C8.13928222,44.5362601 6.60066146,44.8942075 5.87293542,46.0631064 Z" id="Fill-53"></path>
                    <path d="M1.96697361,48.7458832 C1.36373824,48.3703734 0.569967542,48.5548388 0.194463647,49.1583367 C-0.181040248,49.7618347 0.00367527957,50.5553649 0.607163682,50.9311277 C1.21065209,51.3063845 2.00391672,51.1219191 2.37967365,50.5184212 C2.75517754,49.9149232 2.57046201,49.121393 1.96697361,48.7458832" id="Fill-54"></path>
                    <path d="M70.4428217,18.8006567 C70.4428217,13.245802 64.8118269,8.74242427 57.8655844,8.74242427 C56.951541,8.74242427 56.0608971,8.82234743 55.2019401,8.97049768 C54.632552,7.16423423 52.5880197,5.82698328 50.1525205,5.82698328 C49.7800783,5.82698328 49.4168984,5.85895255 49.0663932,5.91860252 C47.116434,2.43122359 42.7436503,0 37.658644,0 C33.0903769,0 29.0958854,1.96182122 26.9172934,4.88856841 C26.1592467,4.54392414 25.2832275,4.34626051 24.3487095,4.34626051 C22.3519512,4.34626051 20.6189249,5.24568848 19.7448557,6.56500545 C19.2549284,6.49833784 18.7528139,6.46169015 18.2394871,6.46169015 C13.314865,6.46169015 9.32329838,9.65432805 9.32329838,13.5920058 C9.32329838,14.3760325 9.48368253,15.1296494 9.77617642,15.8349226 C9.13171488,16.342922 8.65348737,16.9834769 8.40827999,17.7020056 C8.32199429,17.6996664 8.23668357,17.6969373 8.15039788,17.6969373 C3.98089747,17.6969373 0.601130563,20.3995098 0.601130563,23.73406 C0.601130563,26.1758101 2.41508017,28.2772044 5.02363819,29.228485 C5.00170115,29.3824833 4.9895139,29.5388208 4.9895139,29.6974975 C4.9895139,30.3435106 5.17329756,30.9552152 5.50137821,31.5010319 C4.54979808,32.9170364 4.00868439,34.5357728 4.00868439,36.2558752 C4.00868439,41.5717401 9.16583917,45.9211196 15.6962528,46.2868168 C15.8829614,49.1149271 18.8093627,51.3625223 22.3919254,51.3625223 C23.3576427,51.3625223 24.2741236,51.1979976 25.1033438,50.9044262 C25.883815,52.4175081 27.7455386,53.4826304 29.9187682,53.4826304 C31.4319366,53.4826304 32.7944706,52.9652741 33.7455633,52.1410909 C34.9277261,53.0611819 36.5403424,53.6284414 38.3196802,53.6284414 C40.6610938,53.6284414 42.7144009,52.6467511 43.8751142,51.1710966 C44.8588686,51.5921552 45.9830201,51.8315348 47.1768827,51.8315348 C51.0465769,51.8315348 54.1830864,49.3231172 54.1830864,46.2283364 C54.7193252,46.2825282 55.2653138,46.3144975 55.8205647,46.3144975 C62.7663196,46.3144975 68.396827,41.8111197 68.396827,36.2558752 C68.396827,34.9829526 68.0984832,33.766951 67.559807,32.6460774 C69.1636485,31.9365156 70.2502633,30.5696346 70.2502633,29.0000217 C70.2502633,27.3953206 69.1148995,26.003488 67.4525592,25.3079615 C69.3157453,23.5535507 70.4428217,21.2829531 70.4428217,18.8006567 Z" id="Fill-55"></path>
                </g>
                <g id="Group-3" transform="translate(2.020202, 11.111111)">
                    <g id="Dame-med-håndskade" transform="translate(0.000000, 0.031710)">
                        <path d="M2.67969741,27.6832066 L2.67969741,65.7108979 C2.67969741,65.7108979 2.58418383,55.7411132 26.9893798,55.7411132 C51.3955604,55.7411132 26.2873057,27.6832066 26.2873057,27.6832066 L2.67969741,27.6832066 Z" id="Fill-63" fill="#C4AD86"></path>
                        <path d="M51.2031547,27.6832066 L51.6721559,65.7108979 C51.6721559,65.7108979 51.5983052,55.7411132 27.1940939,55.7411132 C2.7879133,55.7411132 27.728773,27.6832066 27.728773,27.6832066 L51.2031547,27.6832066 Z" id="Fill-65" fill="#C4AD86"></path>
                        <path d="M51.3000468,27.3840738 C51.3000468,42.4152002 40.4124837,54.600057 26.9844564,54.600057 C13.553475,54.600057 2.66788129,42.4152002 2.66788129,27.3840738 C2.66788129,12.3549077 13.553475,0.169070768 26.9844564,0.169070768 C40.4124837,0.169070768 51.3000468,12.3549077 51.3000468,27.3840738" id="Fill-67" fill="#C4AD86"></path>
                        <path d="M35.0210869,46.1054515 L27.051119,46.1054515 L19.081151,46.1054515 C14.7840247,46.1054515 0.501298578,55.1666646 0.501298578,63.4153579 L0.501298578,85.1181638 L53.8490777,85.1181638 L53.8490777,63.4153579 C53.8490777,55.1666646 39.3172285,46.1054515 35.0210869,46.1054515" id="Fill-69" fill="#8E9738"></path>
                        <path d="M34.5499194,45.4736659 C33.6282626,45.4736659 27.0516113,48.27485 27.0516113,48.27485 C27.0516113,48.27485 19.3071341,46.0803605 18.7094358,45.9647063 C18.1107527,45.8480719 13.8018103,48.1209711 13.8018103,48.1209711 C14.8810153,49.6999451 17.9522199,57.0488878 27.0516113,57.0488878 C36.1510027,57.0488878 39.2291,49.6999451 40.3102743,48.1209711 C40.3102743,48.1209711 35.4715762,45.4736659 34.5499194,45.4736659" id="Fill-71" fill="#E7E5E2"></path>
                        <path d="M7.00400075,22.6265694 C7.00400075,22.6265694 6.89962509,22.8382754 6.76275512,22.7432038 C6.57369732,22.6696947 6.56385056,22.6265694 6.35017586,22.6265694 C5.41768763,22.6265694 4.85740696,23.3783218 4.85740696,24.3055157 L4.85740696,31.0869687 C4.85740696,32.0161228 5.41768763,32.7668951 6.35017586,32.7668951 C6.72336808,32.7668951 6.96756774,32.6433999 7.24623106,32.4375746 C9.51590936,42.7700038 17.517387,50.4080821 27.0992696,50.4080821 C36.6821369,50.4080821 44.7072468,42.7700038 46.9769251,32.4375746 C47.2565731,32.6433999 47.5155429,32.7668951 47.8887351,32.7668951 C48.822208,32.7668951 49.493757,32.0161228 49.493757,31.0869687 L49.493757,24.3055157 C49.493757,23.3783218 48.8084225,22.6265694 47.8779036,22.6265694 C47.6612749,22.6265694 47.4781252,22.8451363 47.3038375,22.7432038 C26.9840625,10.8778662 7.00400075,22.6265694 7.00400075,22.6265694" id="Fill-73" fill="#E7E5E2"></path>
                        <polyline id="Fill-75" fill="#FFFFFF" points="40.1541047 47.8527122 17.866947 85.1178698 42.9633855 85.1178698 42.9633855 49.357197"></polyline>
                        <polyline id="Fill-77" fill="#FFFFFF" points="13.6745902 47.688052 25.0544913 84.0348368 21.1876685 84.0348368"></polyline>
                    </g>
                    <g id="Undrende-dame" transform="translate(17.776520, 25.488932)">
                        <path d="M0.236220655,1.26537574 C0.332482563,1.04620174 0.888018148,0.0477424407 1.8715133,0.0477424407 C2.85384866,0.0477424407 3.28760714,0.593937948 3.3479158,0.687869659 C4.07046,1.8150502 3.7155667,4.00447083 1.87963177,4.10420079 C0.201427195,4.19465355 -0.268284521,2.42270719 0.236220655,1.26537574 Z" id="Fill-73" fill="#669DB4"></path>
                        <path d="M19.5026247,1.26537574 C19.4075225,1.04620174 18.851987,0.0477424407 17.8684918,0.0477424407 C16.8861564,0.0477424407 16.452398,0.593937948 16.3920893,0.687869659 C15.6695451,1.8150502 16.0232786,4.00447083 17.8603733,4.10420079 C19.5385779,4.19465355 20.0082896,2.42270719 19.5026247,1.26537574 Z" id="Fill-75" fill="#5B93AB"></path>
                        <path d="M10.635848,6.53292266 C11.5484061,6.39262614 12.4377546,6.42638169 12.8555269,6.93904416 C13.873583,8.19010936 13.5813534,9.63421413 11.8670102,10.7006786 C11.0103661,11.2333835 9.79713859,11.4517397 9.05337738,11.1226231" id="Stroke-77" stroke="#D1BFA3" stroke-width="0.5" stroke-linecap="round"></path>
                        <path d="M3.58161583,17.0577987 C3.58161583,17.0577987 4.36019139,17.9554855 6.5281762,17.9386077 L8.69721598,17.9217299" id="Stroke-79" stroke="#D19E9C" stroke-width="0.8" stroke-linecap="round"></path>
                    </g>
                </g>
                <text id="?" font-family="SourceSansPro-Bold, Source Sans Pro" font-size="28" font-weight="bold" fill="#50808B">
                    <tspan x="84.8484848" y="36.2626263">?</tspan>
                </text>
                <polygon id="Fill-36" stroke="#525759" fill="#525759" stroke-linecap="round" points="0 100 126.262626 100 126.262626 95.959596 0 95.959596"></polygon>
            </g>
        </g>
    </g>
</svg>
