<?xml version="1.0" encoding="UTF-8"?>
<svg width="134px" height="101px" viewBox="0 0 134 101" version="1.1" xmlns="http://www.w3.org/2000/svg" xmlns:xlink="http://www.w3.org/1999/xlink">
    <!-- Generator: Sketch 47.1 (45422) - http://www.bohemiancoding.com/sketch -->
    <title>Sykmeldt, hva nå?</title>
    <desc>Created with Sketch.</desc>
    <defs></defs>
    <g id="Landingssiden" stroke="none" stroke-width="1" fill="none" fill-rule="evenodd">
        <g id="Illustrasjoner-til-landingssiden" transform="translate(-103.000000, -142.000000)">
            <g id="Sykmeldt,-hva-nå?" transform="translate(104.000000, 142.000000)">
                <g id="Group" transform="translate(8.421053, 0.000000)">
                    <g id="Group-84" transform="translate(78.641766, 51.097424)">
                        <path d="M19.2172574,43.6170213 L2.6150007,43.6170213 C1.17098532,43.6170213 0,42.4520615 0,41.0154766 L0,8.3406264 C0,6.90358269 1.17098532,5.73908175 2.6150007,5.73908175 L19.2172574,5.73908175 C20.6612727,5.73908175 21.8322581,6.90358269 21.8322581,8.3406264 L21.8322581,41.0154766 C21.8322581,42.4520615 20.6612727,43.6170213 19.2172574,43.6170213" id="Fill-376" fill="#B5B9C1"></path>
                        <polygon id="Fill-377" fill="#657585" points="2.29813243 37.8779395 19.5341256 37.8779395 19.5341256 10.3303471 2.29813243 10.3303471"></polygon>
                        <path d="M12.6397284,40.7474804 C12.6397284,41.6981869 11.867825,42.4692049 10.916129,42.4692049 C9.96443302,42.4692049 9.19252971,41.6981869 9.19252971,40.7474804 C9.19252971,39.7967739 9.96443302,39.0257559 10.916129,39.0257559 C11.867825,39.0257559 12.6397284,39.7967739 12.6397284,40.7474804" id="Fill-378" fill="#657585"></path>
                        <path d="M28.7266553,6.8868981 C28.7266553,10.6903014 25.6398985,13.7737962 21.8324715,13.7737962 C18.0246176,13.7737962 14.9378608,10.6903014 14.9378608,6.8868981 C14.9378608,3.08349475 18.0246176,0 21.8324715,0 C25.6398985,0 28.7266553,3.08349475 28.7266553,6.8868981" id="Fill-379" fill="#CD2027"></path>
                        <path d="M19.5341256,9.1825308 L19.5341256,8.07152634 L20.982463,8.07152634 L20.982463,5.01273246 L20.0869856,5.01273246 L20.0869856,4.07124551 C20.7509367,3.98233191 21.1028982,3.86184153 21.5254597,3.44344905 L22.6820531,3.44344905 L22.6820531,8.07152634 L24.1303905,8.07152634 L24.1303905,9.1825308 L19.5341256,9.1825308 Z" id="Fill-380" fill="#FFFFFF"></path>
                    </g>
                    <g id="Dame-med-håndskade">
                        <path d="M3.13120442,32.3475996 L3.13120442,76.7826446 C3.13120442,76.7826446 3.01959759,65.1330331 31.5368687,65.1330331 C60.0552903,65.1330331 30.7165009,32.3475996 30.7165009,32.3475996 L3.13120442,32.3475996 Z" id="Fill-63" fill="#C4AD86"></path>
                        <path d="M59.8304658,32.3475996 L60.3784899,76.7826446 C60.3784899,76.7826446 60.2921959,65.1330331 31.7760755,65.1330331 C3.25765381,65.1330331 32.4008436,32.3475996 32.4008436,32.3475996 L59.8304658,32.3475996 Z" id="Fill-65" fill="#C4AD86"></path>
                        <path d="M59.9436835,31.9980654 C59.9436835,49.5618132 47.2216554,63.7997183 31.5311157,63.7997183 C15.8371243,63.7997183 3.11739739,49.5618132 3.11739739,31.9980654 C3.11739739,14.4366082 15.8371243,0.197557805 31.5311157,0.197557805 C47.2216554,0.197557805 59.9436835,14.4366082 59.9436835,31.9980654" id="Fill-67" fill="#C4AD86"></path>
                        <path d="M40.9218525,53.8738416 L31.6090104,53.8738416 L22.2961683,53.8738416 C17.2750115,53.8738416 0.585763272,64.4617947 0.585763272,74.100325 L0.585763272,99.4598756 L62.9222052,99.4598756 L62.9222052,74.100325 C62.9222052,64.4617947 45.9418587,53.8738416 40.9218525,53.8738416" id="Fill-69" fill="#8E9738"></path>
                        <path d="M40.3712972,53.1356053 C39.2943488,53.1356053 31.6095857,56.4087659 31.6095857,56.4087659 C31.6095857,56.4087659 22.5602277,53.8445229 21.8618221,53.7093819 C21.1622659,53.5730956 16.1273021,56.2289597 16.1273021,56.2289597 C17.3883442,58.0739778 20.9770216,66.661157 31.6095857,66.661157 C42.2421498,66.661157 45.8388813,58.0739778 47.1022246,56.2289597 C47.1022246,56.2289597 41.4482456,53.1356053 40.3712972,53.1356053" id="Fill-71" fill="#E7E5E2"></path>
                        <path d="M8.18411737,26.4389606 C8.18411737,26.4389606 8.06215527,26.6863373 7.90222383,26.5752469 C7.68131134,26.4893522 7.66980548,26.4389606 7.42012835,26.4389606 C6.33052352,26.4389606 5.67584015,27.317377 5.67584015,28.4007955 L5.67584015,36.3248677 C5.67584015,37.4105767 6.33052352,38.2878478 7.42012835,38.2878478 C7.8562004,38.2878478 8.1415457,38.1435447 8.4671615,37.9030396 C11.119262,49.9763983 20.4689228,58.90143 31.665274,58.90143 C42.8627758,58.90143 52.2400508,49.9763983 54.8921512,37.9030396 C55.2189176,38.1435447 55.5215217,38.2878478 55.9575938,38.2878478 C57.0483492,38.2878478 57.8330487,37.4105767 57.8330487,36.3248677 L57.8330487,28.4007955 C57.8330487,27.317377 57.032241,26.4389606 55.9449373,26.4389606 C55.6918084,26.4389606 55.4777994,26.6943542 55.2741457,26.5752469 C31.5306555,12.7106974 8.18411737,26.4389606 8.18411737,26.4389606" id="Fill-73" fill="#E7E5E2"></path>
                        <polyline id="Fill-75" fill="#FFFFFF" points="46.9197417 55.9155013 20.8773808 99.459532 50.2023632 99.459532 50.2023632 57.6734794"></polyline>
                        <polyline id="Fill-77" fill="#FFFFFF" points="15.9786464 55.7230972 29.2759674 98.1940168 24.7576166 98.1940168"></polyline>
                    </g>
                    <g id="Undrende-dame" transform="translate(21.279004, 29.787234)">
                        <path d="M0.261921463,1.40304862 C0.368656665,1.16002849 0.984634522,0.0529368183 2.07513394,0.0529368183 C3.1643474,0.0529368183 3.64529879,0.658558396 3.71216904,0.762709878 C4.51332604,2.01252766 4.11982036,4.44015725 2.08413571,4.55073784 C0.223342474,4.65103186 -0.297473877,2.68629774 0.261921463,1.40304862 Z" id="Fill-73" fill="#669DB4"></path>
                        <path d="M21.6245102,1.40304862 C21.519061,1.16002849 20.9030831,0.0529368183 19.8125837,0.0529368183 C18.7233703,0.0529368183 18.2424189,0.658558396 18.1755486,0.762709878 C17.3743916,2.01252766 17.7666113,4.44015725 19.803582,4.55073784 C21.6643752,4.65103186 22.1851915,2.68629774 21.6245102,1.40304862 Z" id="Fill-75" fill="#5B93AB"></path>
                        <path d="M11.7930283,7.24370464 C12.8048727,7.08814386 13.7909823,7.12557202 14.2542082,7.69401217 C15.3830288,9.08119326 15.0590047,10.6824166 13.1581409,11.8649125 C12.2082939,12.4555756 10.8630673,12.697689 10.0383848,12.3327645" id="Stroke-77" stroke="#D1BFA3" stroke-width="0.5" stroke-linecap="round"></path>
                        <path d="M3.97129563,18.9136872 C3.97129563,18.9136872 4.83458022,19.9090423 7.23844177,19.8903282 L9.64347308,19.8716141" id="Stroke-79" stroke="#D19E9C" stroke-width="0.8" stroke-linecap="round"></path>
                    </g>
                </g>
                <polygon id="Fill-36" stroke="#525759" fill="#525759" stroke-linecap="round" points="0 100 131.578947 100 131.578947 95.7894737 0 95.7894737"></polygon>
            </g>
        </g>
    </g>
</svg>
