<svg id="Layer_1" data-name="Layer 1" xmlns="http://www.w3.org/2000/svg" viewBox="0 0 370 170"><defs><style>.cls-1{fill:#595b5c;}.cls-2{fill:#cbbba0;}.cls-3{fill:#9eab37;}.cls-4{fill:#edeae8;}.cls-5{fill:#6ea9c8;}.cls-11,.cls-12,.cls-6,.cls-7{fill:none;stroke-miterlimit:10;}.cls-6{stroke:#cbbba0;stroke-width:0.66px;}.cls-12,.cls-6{stroke-linecap:round;}.cls-11,.cls-7{stroke:#c3b09b;}.cls-7{stroke-width:1.31px;}.cls-8{fill:#fff;}.cls-9{fill:#e57e65;}.cls-10{fill:#581f56;}.cls-11{stroke-width:1.33px;}.cls-12{stroke:#e57e65;stroke-width:0.67px;}.cls-13{fill:#cd1719;}.cls-14{fill:#c42229;}.cls-15{fill:#5b2052;}.cls-16{fill:#86497e;}.cls-17{fill:#561d5b;}.cls-18{fill:#b19ab3;}</style></defs><title>2</title><rect class="cls-1" y="163.16" width="370.1" height="8.02"/><path class="cls-2" d="M103.79,86v44.25s-0.11-11.6,28.16-11.6S131.13,86,131.13,86H103.79Z"/><path class="cls-2" d="M160.49,86.08c0,17.49-13,31.28-28.55,31.28s-28.16-14.18-28.16-31.67S116.38,54,131.94,54s28.55,14.57,28.55,32.06"/><path class="cls-3" d="M142.6,108H121.39c-5.72,0-21.83,13-21.83,24.86,0,0-3.84,31.17,9.67,31.17H163.8V132.86C163.8,121,148.32,108,142.6,108"/><path class="cls-4" d="M112.89,89.67a4.7,4.7,0,0,0-3.76.34c-1.53,1.09-1.91,4.66,0,6.32a22.41,22.41,0,0,0,5.36,3s4.57,6.19,4.82,7.42-2.64,3.08-2.64,3.08,4.2,10.39,15.35,10.39,16.27-10.14,16.27-10.14a24,24,0,0,0-3.7-1.91c-0.17-.53,2.2-1.25,4-2.59a15.07,15.07,0,0,0,5.61-8.78c0.45-1.73.73-3.41,1-4.88a3.34,3.34,0,0,0,1.92-4.09,2.31,2.31,0,0,0-1.3-1.46s0.16-5-.06-6.8a55.18,55.18,0,0,1-7.31,1.5,149.05,149.05,0,0,1-17.46.78,58.31,58.31,0,0,1-9.57-.53Z"/><path class="cls-5" d="M153.6,81.24c-1.34-.22-1.4,1.41-1.38,2.53a9.72,9.72,0,0,0,.24,1.56,18,18,0,0,0,2.26.19c0-.09.1-0.92,0.1-0.92C154.92,83.23,154.58,81.41,153.6,81.24Z"/><path class="cls-6" d="M156.27,86.26a13,13,0,0,0-4.57-.57"/><path class="cls-5" d="M137,82.59c-1.7.15-1.75,2.73-1,4.29s2.36,2.29,3.1.71S139,82.41,137,82.59Z"/><path class="cls-7" d="M144.3,96s2.25,2,4.45,1.17a2.67,2.67,0,0,0,1.7-2.78"/><polygon class="cls-8" points="125.22 151.62 129.7 151.62 116.67 109.82 115.69 110.49 125.22 151.62"/><polyline class="cls-8" points="147.19 109.51 115.83 164.03 150.44 164.03 150.44 111.26"/><path class="cls-9" d="M293.58,86.95c0,18.18-13.11,32.92-29.28,32.92S235,105.13,235,86.95,248.13,54,264.3,54s29.28,14.74,29.28,32.92"/><path class="cls-9" d="M235,86.95c0,15.54-8,24.42-8,24.42s7.9,9.7,37.29,9.7-0.84-34.12-.84-34.12H235Z"/><path class="cls-9" d="M293.63,86.95c0,15.54,8,24.42,8,24.42s-7.9,9.7-37.29,9.7,0.84-34.12.84-34.12h28.44Z"/><path class="cls-10" d="M247.59,112c-6.25,4.72-13.41,13.15-13.41,21.13V164h54.06c13.38,0,9.57-30.87,9.57-30.87,0-7.94-7.3-16.4-13.78-21.05-3.1-2.22-11.58-6-19.1-6C258.61,106.1,253.93,107.24,247.59,112Z"/><path class="cls-4" d="M273,107.77c-1.05,0-8.58,3.22-8.58,3.22s-8.86-2.52-9.54-2.66-6.29,3-6.29,3c1.24,1.81,14.72,24.11,14.72,24.11h2.23s13.77-22.54,15-24.36c0,0-6.49-3.36-7.54-3.36"/><path class="cls-4" d="M273,107.67c-1.06,0-8.63,3.24-8.63,3.24s-8.91-2.54-9.6-2.67-6.33,3.07-6.33,3.07c1.24,1.83,14.81,24.26,14.81,24.26h2.24s13.85-22.68,15.1-24.51c0,0-6.53-3.38-7.59-3.38"/><path class="cls-4" d="M288.29,90.91h0a4.76,4.76,0,0,0-3.81-.35l0,0c-0.11-.24-4.48-9.82-7.77-19.44-10.4,8.26-31.47,4.76-35.77,9.2,0,0.32,0,.87,0,1.5,0,1.17,0,5.43,0,5.43a2.35,2.35,0,0,0-1.32,1.48,3.39,3.39,0,0,0,2,4.15c0.07,0.43.14,0.88,0.22,1.34,0.65,4.58,2,9.26,6.4,12.54,1.83,1.36,4.24,2.09,4.07,2.63a24.4,24.4,0,0,0-3.76,1.94s5.21,10.31,16.54,10.31h0c11.33,0,15.6-10.56,15.6-10.56s-2.94-1.88-2.68-3.13,4.9-7.54,4.9-7.54a22.78,22.78,0,0,0,5.44-3.05C290.23,95.64,289.84,92,288.29,90.91Z"/><path class="cls-5" d="M264.77,82.43c1.72,0.15,1.78,2.78,1,4.36s-2.4,2.33-3.15.72S262.72,82.25,264.77,82.43Z"/><path class="cls-11" d="M253.59,98.71s-2.29,2-4.52,1.19a2.72,2.72,0,0,1-1.73-2.83"/><path class="cls-5" d="M243.77,81.94c1.37-.23,1.42,1.43,1.4,2.57a9.88,9.88,0,0,1-.24,1.59,18.31,18.31,0,0,1-2.3.19c0-.1-0.1-0.94-0.1-0.94C242.43,84,242.77,82.11,243.77,81.94Z"/><path class="cls-12" d="M241.06,86.91a13.16,13.16,0,0,1,4.64-.58"/><rect class="cls-13" x="272" y="136.51" width="21.58" height="12.99" rx="2.02" ry="2.02"/><path class="cls-8" d="M287.68,143.22a4.74,4.74,0,1,1-4.73-4.74,4.73,4.73,0,0,1,4.73,4.74"/><polygon class="cls-8" points="276.81 145.31 275.89 145.31 276.88 142.89 277.8 142.89 276.81 145.31"/><polygon class="cls-8" points="288.45 145.31 287.88 145.31 288.87 142.89 289.44 142.89 288.45 145.31"/><polygon class="cls-8" points="290.03 145.31 289.79 145.31 290.77 142.89 291.02 142.89 290.03 145.31"/><path class="cls-14" d="M279.35,145.3h0.73a0.06,0.06,0,0,0,.07-0.07V143a0.06,0.06,0,0,0-.07-0.07h-0.73a0.08,0.08,0,0,0-.08.08l-0.29.71a0.06,0.06,0,0,0,.05.08h0.21a0.06,0.06,0,0,1,.06.06v1.39a0.06,0.06,0,0,0,.07.07"/><path class="cls-14" d="M280.93,145.3h0.73a0.07,0.07,0,0,0,.07-0.07V143a0.07,0.07,0,0,0-.07-0.07h-1.13a0.09,0.09,0,0,0-.09.08l-0.29.71-0.1.08h0.58a0.23,0.23,0,0,1,.24.23v1.22a0.06,0.06,0,0,0,.07.07"/><path class="cls-14" d="M284.19,142.9h-0.73a0.07,0.07,0,0,0-.07.07v2.26a0.07,0.07,0,0,0,.07.07h0.74a0.08,0.08,0,0,0,.09-0.08l0.29-.71a0.06,0.06,0,0,0-.05-0.08h-0.2a0.06,0.06,0,0,1-.06-0.06V143a0.07,0.07,0,0,0-.07-0.07"/><path class="cls-14" d="M281.19,145.3h0.48a0.09,0.09,0,0,0,.08-0.08l0.29-.71a0.06,0.06,0,0,0-.05-0.08h-0.2Z"/><path class="cls-14" d="M286.14,142.9H287a0.06,0.06,0,0,1,.05.08l-0.92,2.28a0.05,0.05,0,0,1-.05,0h-0.78l0.78-2.36a0.06,0.06,0,0,1,.06,0"/><path class="cls-14" d="M285.05,142.9h-1.23a2,2,0,0,1,.38.16l0.87,2.16a0.11,0.11,0,0,0,.11.07h0.74L285.17,143a0.12,0.12,0,0,0-.11-0.08"/><path class="cls-14" d="M282.7,142.9a0.73,0.73,0,0,1,.75.77,0.82,0.82,0,0,1-.06.51,0.52,0.52,0,0,0-.43-0.46,0.36,0.36,0,0,0-.43.36,0.37,0.37,0,0,0,.28.34h0.64l-0.38.83a0.08,0.08,0,0,1-.07,0h-0.29a1.26,1.26,0,0,1-1.1-1.17,1.17,1.17,0,0,1,1.08-1.23"/><rect class="cls-15" x="281.73" y="136.98" width="2.55" height="0.88" rx="0.36" ry="0.36"/><rect class="cls-16" x="282.42" y="134.02" width="1.16" height="3.49"/><path class="cls-3" d="M35.06,29.94H91.49a4.8,4.8,0,0,1,4.8,4.79V68.21a4.8,4.8,0,0,1-4.8,4.8H77.83V92.82L55.91,73H35.06a4.79,4.79,0,0,1-4.8-4.8V34.73a4.8,4.8,0,0,1,4.8-4.79"/><circle class="cls-8" cx="52.59" cy="50.98" r="3.96"/><circle class="cls-8" cx="64.61" cy="50.98" r="3.96"/><circle class="cls-8" cx="76.63" cy="50.98" r="3.96"/><path class="cls-17" d="M168.52,15.06H230a4.86,4.86,0,0,1,4.86,4.86V66.74A4.86,4.86,0,0,1,230,71.6H213.42V91.68L187.59,71.6H168.52a4.86,4.86,0,0,1-4.86-4.86V19.92a4.86,4.86,0,0,1,4.86-4.86"/><circle class="cls-8" cx="199.28" cy="39.18" r="11.62"/><rect class="cls-8" x="193.79" y="40.65" width="10.98" height="13.14" rx="1.77" ry="1.77"/><rect class="cls-18" x="193.78" y="54.59" width="10.98" height="2.73" rx="1.36" ry="1.36"/><rect class="cls-18" x="193.78" y="57.93" width="10.98" height="2.73" rx="1.36" ry="1.36"/><path class="cls-18" d="M201.1,61.27h-3.64a0.58,0.58,0,0,0-.36,1,3.55,3.55,0,0,0,4.37,0A0.58,0.58,0,0,0,201.1,61.27Z"/></svg>