<?xml version="1.0" encoding="utf-8"?>
<!-- Generator: Adobe Illustrator 19.2.1, SVG Export Plug-In . SVG Version: 6.00 Build 0)  -->
<svg version="1.1" id="Layer_1" xmlns="http://www.w3.org/2000/svg" xmlns:xlink="http://www.w3.org/1999/xlink" x="0px" y="0px"
	 width="370px" height="170px" viewBox="0 0 370 170" style="enable-background:new 0 0 370 170;" xml:space="preserve">
<style type="text/css">
	.st0{fill:#BCD0CF;}
	.st1{fill:#FFFFFF;}
	.st2{fill:#585B5C;}
	.st3{fill:#CBBBA0;}
	.st4{fill:#9EAB37;}
	.st5{fill:#EDEAE8;}
	.st6{fill:#6EA9C8;}
	.st7{fill:none;stroke:#CBBBA0;stroke-width:0.6552;stroke-linecap:round;stroke-miterlimit:10;}
	.st8{fill:none;stroke:#C3B09B;stroke-width:1.3104;stroke-miterlimit:10;}
	.st9{fill:#E57E65;}
	.st10{fill:#581F56;}
	.st11{fill:none;stroke:#C3B09B;stroke-width:1.3327;stroke-miterlimit:10;}
	.st12{fill:none;stroke:#E57E65;stroke-width:0.6663;stroke-linecap:round;stroke-miterlimit:10;}
	.st13{fill:#CD1719;}
	.st14{fill:#C42229;}
	.st15{fill:#5B2052;}
	.st16{fill:#86497E;}
	.st17{fill:none;}
	.st18{fill:#8C8C8C;}
	.st19{fill:#C6C5C5;}
	.st20{fill:#CAC8C6;}
	.st21{fill:#545454;}
	.st22{fill:#8CBF43;}
	.st23{fill:#0D536E;}
	.st24{fill:#FFFFFF;stroke:#CC9999;stroke-width:1.4492;stroke-miterlimit:10;}
	.st25{fill:#EDEAE8;stroke:#CBBBA0;stroke-width:0.7246;stroke-linecap:round;stroke-miterlimit:10;}
	.st26{fill:#538190;}
	.st27{fill:#759DAC;}
	.st28{fill:#12506D;}
	.st29{fill:#36363A;}
	.st30{fill:none;stroke:#36363A;stroke-width:0.7036;stroke-linecap:round;stroke-miterlimit:10;}
	.st31{fill:#D2CFCD;}
	.st32{fill:#3D3A3C;}
	.st33{fill:none;stroke:#C3B09B;stroke-width:1.3453;stroke-miterlimit:10;}
	.st34{fill:#595B5C;}
	.st35{fill:#561D5B;}
	.st36{fill:#1A293A;}
	.st37{fill:#B19AB3;}
	.st38{fill:none;stroke:#C3B09B;stroke-width:0.8964;stroke-miterlimit:10;}
	.st39{fill:none;stroke:#E57E65;stroke-width:0.4482;stroke-linecap:round;stroke-miterlimit:10;}
	.st40{fill:none;stroke:#CBBBA0;stroke-width:0.4412;stroke-linecap:round;stroke-miterlimit:10;}
	.st41{fill:none;stroke:#FFFFFF;stroke-width:0.8823;stroke-miterlimit:10;}
</style>
<g>
	<path class="st17" d="M315.1,87.9c-0.7,0-1.2,0.4-1.5,1h3.1C316.3,88.3,315.7,87.9,315.1,87.9z"/>
	<path class="st18" d="M313.3,89.6c0,1,0.8,1.8,1.8,1.8c1,0,1.8-0.8,1.8-1.8c0-0.3-0.1-0.6-0.2-0.8h-3.1
		C313.4,89.1,313.3,89.3,313.3,89.6z"/>
	<path class="st18" d="M331.7,93.9h13.8c2.5,0,4.6,2,4.6,4.6v64.7h6.7V94.3c0-3-2.4-5.4-5.4-5.4h-19.8c0.1,0.4,0.1,0.8,0.1,1.2V93.9
		z"/>
	<path class="st18" d="M280,163.2v-54.3l15.8-15h2.5V90c0-0.4,0-0.8,0.1-1.2h-19.8c-3,0-5.4,2.4-5.4,5.4v68.9H280z"/>
	<path class="st1" d="M350.1,98.4c0-2.5-2-4.6-4.6-4.6h-13.8v3.2h-33.4v-3.2h-2.5v10.4c0,2.5-2,4.6-4.6,4.6H280v54.3h70V98.4z
		 M298,158.1h-4v-3.8h4V158.1z M298,149.5h-4v-3.8h4V149.5z M298,141h-4v-3.8h4V141z M298,128.7v3.8h-4v-3.8h0.3l-0.9-1l0.9,1h3.2
		l2.1-2.7l-2.1,2.7H298z M337.1,158.1h-33.8v-3.8h33.8V158.1z M337.1,149.5h-33.8v-3.8h33.8V149.5z M337.1,141h-33.8v-3.8h33.8V141z
		 M337.1,132.4h-33.8v-3.8h33.8V132.4z"/>
	<path class="st19" d="M295.9,104.3V93.9l-15.8,15h11.3C293.8,108.9,295.9,106.8,295.9,104.3z"/>
	<rect x="303.3" y="128.7" class="st20" width="33.8" height="3.8"/>
	<rect x="303.3" y="137.2" class="st20" width="33.8" height="3.8"/>
	<rect x="303.3" y="145.8" class="st20" width="33.8" height="3.8"/>
	<rect x="303.3" y="154.3" class="st20" width="33.8" height="3.8"/>
	<polygon class="st20" points="296.1,130.6 297.6,128.7 294.4,128.7 	"/>
	<polygon class="st20" points="294.4,128.7 294,128.7 294,132.4 298,132.4 298,128.7 297.6,128.7 296.1,130.6 	"/>
	<rect x="294" y="137.2" class="st20" width="4" height="3.8"/>
	<rect x="294" y="145.8" class="st20" width="4" height="3.8"/>
	<rect x="294" y="154.3" class="st20" width="4" height="3.8"/>
	<path class="st21" d="M315.1,87.9c0.7,0,1.2,0.4,1.5,1h15c-0.6-2.6-2.9-4.6-5.7-4.6h-6.5V83c0-2.4-1.9-4.3-4.3-4.3
		c-2.4,0-4.3,1.9-4.3,4.3v1.2h-6.5c-2.8,0-5.1,2-5.7,4.6h15C313.8,88.3,314.4,87.9,315.1,87.9z"/>
	<path class="st21" d="M298.4,93.9h33.4V90c0-0.4,0-0.8-0.1-1.2h-15c0.1,0.2,0.2,0.5,0.2,0.8c0,1-0.8,1.8-1.8,1.8
		c-1,0-1.8-0.8-1.8-1.8c0-0.3,0.1-0.6,0.2-0.8h-15c-0.1,0.4-0.1,0.8-0.1,1.2V93.9z"/>
	<rect x="298.4" y="93.9" class="st21" width="33.4" height="3.2"/>
	<polygon class="st22" points="296,133.1 292.3,128.8 294.4,127 295.9,128.6 298.4,125.3 300.7,127 	"/>
</g>
<path class="st23" d="M54,121.5c-0.7,0-1.3,0.1-2,0.2l0.6-7.1h-42l4.1,48.5h33.8l1.6-19.6c1.2,0.4,2.5,0.7,3.8,0.7
	c6.3,0,11.4-5.1,11.4-11.4C65.4,126.6,60.3,121.5,54,121.5z M54.4,137.2c-1.5,0-2.7-0.7-3.5-1.9c-0.4-0.7-0.7-1.5-0.7-2.3
	c0-1.1,0.4-2.1,1.1-2.9c0.8-0.8,1.8-1.3,3-1.3c2.3,0,4.2,1.9,4.2,4.2C58.6,135.4,56.7,137.2,54.4,137.2z"/>
<g>
	<path class="st3" d="M163.5,75.1c0,23.1-17.2,41.3-37.7,41.3c-20.5,0-37.2-18.7-37.2-41.8c0-23.1,16.6-41.8,37.2-41.8
		C146.4,32.8,163.5,52,163.5,75.1"/>
	<path class="st3" d="M88.6,75.1v58.4c0,0-0.1-15.3,37.2-15.3c37.3,0-1.1-43.1-1.1-43.1H88.6z"/>
	<path class="st3" d="M163.6,75.1v58.4c0,0-0.1-15.3-37.4-15.3c-37.3,0,0.8-43.1,0.8-43.1H163.6z"/>
	<path class="st4" d="M139,103.6h-12.9h-12.9c-7,0-26.5,15.8-26.5,30.2c0,0-4.7,37.9,11.8,37.9s66.4,0,66.4,0v-37.9
		C164.8,119.4,145.9,103.6,139,103.6"/>
	<path class="st5" d="M137.6,102.4c-1.4,0-11.5,4.3-11.5,4.3s-11.9-3.3-12.8-3.5c-1.1-0.3-7.7,3.2-7.5,3.3
		c1.7,2.4,6.3,13.7,20.3,13.7c13.9,0,18.6-11.3,20.3-13.7C146.4,106.5,139,102.4,137.6,102.4"/>
	<path class="st5" d="M95.4,67.3c0,0-0.2,0.3-0.4,0.2c-0.3-0.1-0.3-0.2-0.6-0.2c-1.4,0-2.3,1.2-2.3,2.6v10.4c0,1.4,0.9,2.6,2.3,2.6
		c0.6,0,0.9-0.2,1.4-0.5c3.5,15.9,15.7,27.6,30.4,27.6c14.7,0,26.9-11.7,30.4-27.6c0.4,0.3,0.8,0.5,1.4,0.5c1.4,0,2.5-1.2,2.5-2.6
		V69.9c0-1.4-1-2.6-2.5-2.6c-0.3,0-0.6,0.1-0.9,0.2C124,71.3,95.4,67.3,95.4,67.3"/>
	<path class="st1" d="M150.4,109.1v54.2h-38.4l34-57C146,106.3,147.5,106.9,150.4,109.1z"/>
	<polygon class="st1" points="117.1,161.7 123.1,161.7 105.8,106.4 105.3,106.8 	"/>
	<path class="st6" d="M111.3,75.6c-0.1-0.9-0.1-2,0.2-2.8c0.1-0.4,0.9-2.3,2.2-2.3s1.9,1,2,1.2c0.5,1.2,0.6,2.9,0.2,4.3
		c0,0.1-1.2-0.5-2.3-0.6C112.4,75.4,111.3,75.7,111.3,75.6z"/>
	<path class="st24" d="M136.2,91.1c0,0-3.3,6.4-10,6.4c-6.8,0-10.6-6.4-10.6-6.4s4.9,3.2,10.7,3.2S136.2,91.1,136.2,91.1z"/>
	<path class="st25" d="M126.8,80.7c1.3-0.2,2.6-0.2,3.3,0.6c1.5,1.9,1.1,4-1.5,5.6c-1.3,0.8-3,1.1-4.1,0.6"/>
	<ellipse class="st5" cx="112.8" cy="88.5" rx="2.8" ry="2.7"/>
	<ellipse class="st5" cx="139.1" cy="88.5" rx="2.8" ry="2.7"/>
	<path class="st25" d="M115.8,75.9c0,0-1.1-1.5-5.7-0.4"/>
	<path class="st6" d="M141.1,75.6c0.1-0.9,0.1-2-0.2-2.8c-0.1-0.4-0.9-2.3-2.2-2.3s-1.9,1-2,1.2c-0.5,1.2-0.6,2.9-0.2,4.3
		c0,0.1,1.2-0.5,2.3-0.6C139.9,75.4,141,75.7,141.1,75.6z"/>
	<path class="st25" d="M136.6,75.9c0,0,1.1-1.5,5.7-0.4"/>
</g>
<g>
	<path class="st26" d="M206.1,100.6h13.5H233c7.3,0,27.7,16.5,27.7,31.5c0,0,4.9,39.5-12.3,39.5s-69.2,0-69.2,0v-39.5
		C179.2,117.1,198.8,100.6,206.1,100.6"/>
	<g>
		<path class="st27" d="M228.6,125.6h17.5v9.7c0,0-6.8,7.5-8.8,7.5s-8.8-7.5-8.8-7.5V125.6z"/>
		<path class="st28" d="M230.5,100.6l-10.8,4.1l-12-3.3l-4.8,2c1.6,2.3,10,7.6,14.4,7.6l-1,0v6.3l1.5,0.9l-5.6,23.7l7.5,10.4
			l0.1,0.1l7.6-10.6l-5.6-23.7l1.5-0.9v-6.3l-1,0c4.4,0,13.1-5.3,14.6-7.6L230.5,100.6z"/>
		<path class="st29" d="M252.8,68.7c-1.7,11.1-16.5,17-32.7,17c-16,0-31.1-8.9-32.5-17c-1.8-10.4-0.4-16.3,4.7-23.3
			c6.6-9,16.6-14.7,27.7-14.7c11.2,0,21.3,5.9,28,15C253.3,52.8,254.5,56.4,252.8,68.7"/>
		<path class="st5" d="M245.3,75.8c0,0,2.7-1.4,4.7,0c2,1.4,2.3,6,0.1,10c-1.6,2.9-7,3.9-7,3.9s-5.2,7.1-7.9,9.5
			c-1.2,1.1-0.4,7.4-14.8,7.4s-17.8-5-16.3-5.4c0.2-0.7-2.9-1.6-5.2-3.4c-4.2-3.1-6.2-7.1-7.3-11.4c-0.6-2.2-0.9-4.4-1.2-6.3
			c-2.4-1.3-3-3-2.5-5.3c0.3-1.3,1.7-1.9,1.7-1.9s-0.2-6.4,0.1-8.8c0,0,0.3-4.5,2.8-8.1c2-2.8,5.2-5.1,8-5.9c5.9,0.7,17.2,12,26,12
			C235.3,62,245.3,75.8,245.3,75.8z"/>
		<path class="st6" d="M213.9,67.8c2.2,0.2,2.3,3.5,1.3,5.6c-0.7,1.3-2.4-0.2-4.3,0.1C210.4,71.3,211.6,67.6,213.9,67.8z"/>
		<path class="st6" d="M192.3,66.1c1.7-0.3,1.8,1.8,1.8,3.3c0,0.4-0.2,1.6-0.3,2c0,0-2.9,0.4-2.9,0.2c0-0.1-0.1-1.2-0.1-1.2
			C190.6,68.7,191.1,66.3,192.3,66.1z"/>
		<path class="st30" d="M188.9,72.7c2.7-1,5.9-0.7,5.9-0.7"/>
		<path class="st31" d="M215.7,87.8l-8-4.1c-2.6-1.1-6.3-2.1-11.5-2.1c-2.2,0-4,0.4-5.6,1c-0.1,0.7,0.9,7.3,5.4,12.5
			c2.9,3.4,7.9,5,7.9,5.9c-0.7,0.2,9.2,2.8,12.7,2.8c13.5,0,22.2-4.9,27.1-16.1H215.7z"/>
		<path class="st32" d="M243.2,79.2c2.4,0.6,5-9.2,5-11.8c0-19.1-13.3-34.7-29.6-34.7c-16.4,0-34,18.6-30.9,36
			c0.4,2.5,0.4,5.2,1.3,4.5l0.6-0.4c0,0-0.1-1.8-0.1-2.8c0-3.8-0.1-10.1,3-14.1c2.9-3.8,8-5.9,8-5.9c0.8,0,13.1,10.2,35.5,17.9
			C239.2,69.1,239.5,78.2,243.2,79.2"/>
	</g>
	<path class="st25" d="M210.8,73.2c0,0,3.2-0.2,4.9,1.5"/>
	<path class="st33" d="M205.1,89.1c0,0-2.8,2.5-5.5,1.5c-2.4-0.9-2.1-3.5-2.1-3.5"/>
</g>
<rect y="163.2" class="st34" width="370.1" height="8"/>
</svg>
