<svg width="311" height="182" viewBox="0 0 311 182" xmlns="http://www.w3.org/2000/svg" xmlns:xlink="http://www.w3.org/1999/xlink"><defs><path id="a" d="M0 181.512h310.73V.607H0z"/></defs><g fill="none" fill-rule="evenodd"><path fill="#2F3237" d="M4.013 83.115h115.43V1.822H4.013z"/><path fill="#DEDEDA" d="M9.247 80.15h104.961V12.465H9.248z"/><path fill="#2F3237" d="M0 85.39h123.455v-3.155H0zM0 7.806h123.455V.488H0z"/><path fill="#DEDEDA" d="M9.247 4.94h104.961V2.618H9.248z"/><path fill="#2F3237" d="M60.406 93.294h2.645v-9.482h-2.645z"/><g transform="translate(0 -.12)"><path d="M61.727 95.509c-.684 0-1.292.28-1.623.752l-5.875 8.326a1.983 1.983 0 0 0-.144 2.065 1.985 1.985 0 0 0 1.768 1.079h11.749c.747 0 1.425-.414 1.768-1.079a1.983 1.983 0 0 0-.143-2.063l-5.874-8.326c-.333-.473-.94-.754-1.626-.754zm5.875 15.321h-11.75a5.07 5.07 0 0 1-4.516-2.752 5.078 5.078 0 0 1 .366-5.284l5.873-8.32c.91-1.294 2.462-2.066 4.152-2.066 1.691 0 3.245.772 4.154 2.067l5.874 8.32a5.078 5.078 0 0 1 .364 5.283 5.07 5.07 0 0 1-4.517 2.752z" fill="#2F3237"/><path d="M274.18 119.636a1.473 1.473 0 1 0 2.946 0 1.43 1.43 0 0 0-.179-.668h-2.588c-.105.202-.18.423-.18.668M289.666 123.201h11.59a3.826 3.826 0 0 1 3.825 3.83v54.48h5.648v-57.98a4.56 4.56 0 0 0-4.558-4.564h-16.613c.07.327.108.668.108 1.015v3.22zM246.224 181.512v-45.693l13.31-12.617h2.105v-3.22c0-.348.038-.687.108-1.014h-16.613a4.56 4.56 0 0 0-4.558 4.563v57.981h5.648z" fill="#838688"/><mask id="b" fill="#fff"><use xlink:href="#a"/></mask><path d="M265.747 155.659h28.42v-3.178h-28.42v3.178zm0 7.192h28.42v-3.178h-28.42v3.178zm0 7.192h28.42v-3.178h-28.42v3.178zm0 7.192h28.42v-3.178h-28.42v3.178zm-4.414-24.754v3.178h-3.354v-3.178h.293l-.719-.823.72.823h2.71l1.764-2.281-1.765 2.28h.35zm-3.354 10.37h3.354v-3.178h-3.354v3.178zm0 7.192h3.354v-3.178h-3.354v3.178zm0 7.192h3.354v-3.178h-3.354v3.178zm47.102-50.203a3.827 3.827 0 0 0-3.826-3.83h-11.588v2.684h-28.028v-2.684h-2.106v8.789a3.825 3.825 0 0 1-3.822 3.828h-9.487v45.693h58.857v-54.48z" fill="#FFF" mask="url(#b)"/><path d="M259.534 131.99v-8.788l-13.309 12.616h9.485a3.826 3.826 0 0 0 3.824-3.828" fill="#BBBCBC" mask="url(#b)"/><path fill="#C0C0BE" mask="url(#b)" d="M265.748 155.659h28.42v-3.178h-28.42zM265.748 162.85h28.42v-3.177h-28.42zM265.748 170.043h28.42v-3.178h-28.42zM265.748 177.235h28.42v-3.178h-28.42zM259.708 154.124l1.273-1.642h-2.708z"/><path fill="#C0C0BE" mask="url(#b)" d="M258.273 152.481h-.293v3.178h3.353v-3.178h-.352l-1.273 1.642zM257.98 162.85h3.353v-3.177h-3.354zM257.98 170.043h3.353v-3.178h-3.354zM257.98 177.235h3.353v-3.178h-3.354z"/><path d="M275.653 118.16c.569 0 1.049.335 1.294.808h12.61a4.902 4.902 0 0 0-4.792-3.894h-5.49v-1.013a3.625 3.625 0 0 0-3.622-3.627c-2 0-3.622 1.623-3.622 3.627v1.013h-5.49a4.905 4.905 0 0 0-4.795 3.894h12.613a1.461 1.461 0 0 1 1.294-.808" fill="#4C4F50" mask="url(#b)"/><path d="M261.64 123.201h28.026v-3.22a4.97 4.97 0 0 0-.107-1.014h-12.612c.105.202.18.423.18.67a1.474 1.474 0 0 1-2.948 0c0-.247.074-.468.18-.67h-12.613a4.97 4.97 0 0 0-.107 1.015v3.22zM261.64 125.888h28.027v-2.686H261.64z" fill="#4C4F50" mask="url(#b)"/><path fill="#85C556" mask="url(#b)" d="M259.625 156.176l-3.096-3.547 1.776-1.555 1.209 1.388 2.163-2.792 1.866 1.449z"/><path d="M86.463 107.065v49.424s-.113-13.05 31.167-13.05c31.279 0-.894-36.374-.894-36.374H86.463z" fill="#2F3237" mask="url(#b)"/><path d="M148.856 107.065v49.424s.113-13.05-31.165-13.05c-31.28 0 .892-36.374.892-36.374h30.273z" fill="#2F3237" mask="url(#b)"/><path d="M148.795 107.065c0 19.382-13.953 35.094-31.165 35.094-17.214 0-31.168-15.712-31.168-35.094 0-19.38 13.954-35.093 31.168-35.093 17.212 0 31.165 15.713 31.165 35.093" fill="#2F3237" mask="url(#b)"/><path d="M127.93 131.464h-20.428c-5.51 0-23.62 11.425-23.62 22.062v27.987h67.667v-27.987c0-10.637-18.111-22.062-23.619-22.062" fill="#8E9738" mask="url(#b)"/><path d="M127.327 130.392c-1.18 0-9.611 3.61-9.611 3.61s-9.925-2.829-10.692-2.98c-.766-.15-6.29 2.783-6.29 2.783 1.384 2.035 5.319 11.511 16.982 11.511 11.662 0 15.607-9.474 16.993-11.511 0 0-6.201-3.413-7.382-3.413" fill="#E7E6E2" mask="url(#b)"/><path d="M92.021 100.93s-.135.273-.309.151a2.16 2.16 0 0 0-.78-.15 2.162 2.162 0 0 0-2.161 2.165v8.745c0 1.196.967 2.166 2.161 2.166.479 0 .917-.16 1.275-.425 2.909 13.322 13.226 23.17 25.508 23.17 12.283 0 22.598-9.848 25.508-23.17.359.265.797.425 1.275.425 1.195 0 2.163-.97 2.163-2.166v-8.745a2.164 2.164 0 0 0-2.163-2.165 2.16 2.16 0 0 0-.78.15c-27.694 3.218-51.697-.15-51.697-.15" fill="#E7E6E2" mask="url(#b)"/><path fill="#FFF" mask="url(#b)" d="M134.71 132.663l-28.765 47.706h32.563v-45.42"/><path fill="#FFF" mask="url(#b)" d="M100.733 132.583l14.424 46.867h-4.633"/><path d="M205.912 129.574h-21.201c-5.716 0-24.511 11.856-24.511 22.896v29.042h70.223V152.47c0-11.04-18.795-22.896-24.511-22.896" fill="#0F5FA9" mask="url(#b)"/><path d="M203.557 152.674h16.154v8.972s-6.245 6.933-8.077 6.933c-1.833 0-8.077-6.933-8.077-6.933v-8.972z" fill="#3C84C5" mask="url(#b)"/><path d="M205.285 129.603l-9.973 3.748-11.096-3.093-4.461 1.874c1.436 2.113 9.248 7.035 13.267 7.035l-.942-.046v5.82l1.413.785-5.182 21.858 7 9.75 7-9.75-5.18-21.858 1.41-.785v-5.82l-.941.046c4.015 0 12.04-4.92 13.478-7.035l-5.793-2.529z" fill="#3C84C5" mask="url(#b)"/><path d="M222.634 103.064c0 17.672-12.232 32-27.323 32-15.09 0-27.322-14.328-27.322-32 0-17.674 12.232-32.001 27.322-32.001s27.323 14.327 27.323 32" fill="#E7E6E2" mask="url(#b)"/><path d="M220.861 101.37c2.24.592 1.545-1.05 1.545-3.483 0-17.674-12.233-32.001-27.323-32.001s-27.323 14.327-27.323 32c0 2.33.213 4.6.615 6.788 0 0 7.613-6.877 9.451-9.67 2.457-3.734 4.829-11.536 4.829-11.536.846 0 11.447 10.821 38.206 17.902" fill="#2F3237" mask="url(#b)"/><path d="M224.632 111.457h-3.053a.719.719 0 0 1-.718-.718V98.604c0-.395.321-.717.718-.717h3.053c.397 0 .718.322.718.717v12.135c0 .396-.321.718-.718.718" fill="#E7E6E2" mask="url(#b)"/><path d="M188.142 122.763h14.339v-4.212h-14.34v4.212zm17.647-4.978v-2.745h-21.987v3.063h-12.72c4.596 10.092 13.674 16.96 24.122 16.96 10.613 0 19.813-6.924 24.337-17.278h-13.752z" fill="#C0C0BE" mask="url(#b)"/><path d="M169.043 111.457h-3.054a.719.719 0 0 1-.717-.718V98.604c0-.395.32-.717.717-.717h3.054c.396 0 .717.322.717.717v12.135c0 .396-.32.718-.717.718" fill="#E7E6E2" mask="url(#b)"/><path d="M56.604 159.692a3.51 3.51 0 0 1-2.924-1.567 3.506 3.506 0 0 1 .366-4.362 3.496 3.496 0 0 1 2.558-1.117 3.52 3.52 0 0 1 3.518 3.523 3.521 3.521 0 0 1-3.518 3.523m-.315-13.194c-.563 0-1.111.06-1.647.152l.5-5.96H19.885l3.42 40.822H51.72l1.38-16.468a9.511 9.511 0 0 0 3.188.557c5.267 0 9.539-4.275 9.539-9.551 0-5.275-4.272-9.552-9.539-9.552" fill="#0C576F" mask="url(#b)"/></g><g><path d="M108.82 112.615c-1.665.125-2.13-2.328-1.629-3.93.094-.303.645-1.684 1.62-1.684.975 0 1.405.754 1.464.884.717 1.562.366 4.592-1.455 4.73M127.391 112.615c1.664.125 2.13-2.328 1.629-3.93-.095-.303-.645-1.684-1.62-1.684-.975 0-1.405.754-1.465.884-.716 1.562-.365 4.592 1.456 4.73" fill="#635E59"/><path d="M118.545 114.867c.995-.153 1.966-.116 2.42.443 1.11 1.364.791 2.938-1.076 4.1-.935.581-2.258.82-3.069.46" stroke="#D1BFA3" stroke-width=".506" stroke-linecap="round"/><path d="M125.715 124.05s-2.103 4.815-7.951 4.635c-5.85-.18-8.042-4.635-8.042-4.635" stroke="#D19E9C" stroke-width="1.013" stroke-linecap="round"/></g><g><path d="M185.82 105.615c-1.665.125-2.13-2.328-1.629-3.93.094-.303.645-1.684 1.62-1.684.975 0 1.405.754 1.464.884.717 1.562.366 4.592-1.455 4.73M204.391 105.615c1.664.125 2.13-2.328 1.629-3.93-.095-.303-.645-1.684-1.62-1.684-.975 0-1.405.754-1.465.884-.716 1.562-.365 4.592 1.456 4.73" fill="#635E59"/><path d="M195.545 107.867c.995-.153 1.966-.116 2.42.443 1.11 1.364.791 2.938-1.076 4.1-.935.581-2.258.82-3.069.46" stroke="#D1BFA3" stroke-width=".506" stroke-linecap="round"/></g></g></svg>