<svg width="311" height="182" viewBox="0 0 311 182" xmlns="http://www.w3.org/2000/svg" xmlns:xlink="http://www.w3.org/1999/xlink"><defs><path id="a" d="M0 181.512h310.73V.607H0z"/></defs><g fill="none" fill-rule="evenodd"><path d="M59.858 163.43a2.86 2.86 0 0 0 0-5.722c-.823 0-1.559.352-2.081.908a2.84 2.84 0 0 0-.297 3.543 2.857 2.857 0 0 0 2.378 1.271zm-.256-10.713a7.756 7.756 0 0 1 7.755 7.756 7.755 7.755 0 0 1-7.755 7.756 7.72 7.72 0 0 1-2.594-.454l-1.122 13.373H32.781L30 148h28.669l-.407 4.841a7.685 7.685 0 0 1 1.34-.124z" fill="#C52C35"/><path d="M49.216 162.108a6.108 6.108 0 1 1-12.215-.003 6.108 6.108 0 0 1 12.215.003M35.191 165.12H34l1.272-3.12h1.19zM50.738 165.12H50l1.272-3.12h.737zM52.312 165.12H52l1.273-3.12h.311z" fill="#FFF"/><path d="M38.5 165.092h.94a.086.086 0 0 0 .085-.086v-2.919a.086.086 0 0 0-.086-.087h-.95a.11.11 0 0 0-.11.111l-.373.92a.074.074 0 0 0 .07.103h.263c.041 0 .074.034.074.075v1.797c0 .047.04.086.087.086" fill="#C52C35"/><path d="M40.137 165.092h.939a.087.087 0 0 0 .087-.086v-2.919a.087.087 0 0 0-.087-.087h-1.462a.111.111 0 0 0-.111.111l-.373.92-.13.103h.747c.167 0 .304.136.304.304v1.568c0 .047.038.086.086.086M45.026 162h-.939a.087.087 0 0 0-.087.086v2.919c0 .048.039.087.087.087h.949c.061 0 .111-.05.111-.111l.373-.92a.074.074 0 0 0-.069-.103h-.264a.076.076 0 0 1-.075-.075v-1.797a.086.086 0 0 0-.086-.086" fill="#C52C35"/><path d="M41 165.134h.616c.062 0 .112-.05.112-.111l.373-.92a.075.075 0 0 0-.07-.103h-.263L41 165.134zM47.077 162h1.119c.053 0 .09.054.069.104l-1.182 2.94a.076.076 0 0 1-.07.048H46l1.005-3.04a.075.075 0 0 1 .072-.052" fill="#C52C35"/><path d="M45.597 162h-1.583c-.109 0 .454.11.495.212l1.119 2.783c.024.058.08.097.144.097h.96l-.989-2.986a.153.153 0 0 0-.146-.106M42.396 162c.524 0 .969.36.969.989s-.076.663-.076.663-.092-.594-.548-.594c-.456 0-.56.263-.56.456 0 .228.229.444.36.444h.824l-.488 1.077a.096.096 0 0 1-.087.057h-.373c-.394 0-1.417-.514-1.417-1.509 0-.995.76-1.583 1.396-1.583" fill="#C52C35"/><g><path fill="#2F3237" d="M4.013 83.115h115.43V1.822H4.013z"/><path fill="#DEDEDA" d="M9.247 80.15h104.961V12.465H9.248z"/><path fill="#2F3237" d="M0 85.39h123.455v-3.155H0zM0 7.806h123.455V.488H0z"/><path fill="#DEDEDA" d="M9.247 4.94h104.961V2.618H9.248z"/><path fill="#2F3237" d="M60.406 93.294h2.645v-9.482h-2.645z"/><g transform="translate(0 -.12)"><path d="M61.727 95.509c-.684 0-1.292.28-1.623.752l-5.875 8.326a1.983 1.983 0 0 0-.144 2.065 1.985 1.985 0 0 0 1.768 1.079h11.749c.747 0 1.425-.414 1.768-1.079a1.983 1.983 0 0 0-.143-2.063l-5.874-8.326c-.333-.473-.94-.754-1.626-.754zm5.875 15.321h-11.75a5.07 5.07 0 0 1-4.516-2.752 5.078 5.078 0 0 1 .366-5.284l5.873-8.32c.91-1.294 2.462-2.066 4.152-2.066 1.691 0 3.245.772 4.154 2.067l5.874 8.32a5.078 5.078 0 0 1 .364 5.283 5.07 5.07 0 0 1-4.517 2.752z" fill="#2F3237"/><path d="M274.18 119.636a1.473 1.473 0 1 0 2.946 0 1.43 1.43 0 0 0-.179-.668h-2.588c-.105.202-.18.423-.18.668M289.666 123.201h11.59a3.826 3.826 0 0 1 3.825 3.83v54.48h5.648v-57.98a4.56 4.56 0 0 0-4.558-4.564h-16.613c.07.327.108.668.108 1.015v3.22zM246.224 181.512v-45.693l13.31-12.617h2.105v-3.22c0-.348.038-.687.108-1.014h-16.613a4.56 4.56 0 0 0-4.558 4.563v57.981h5.648z" fill="#838688"/><mask id="b" fill="#fff"><use xlink:href="#a"/></mask><path d="M265.747 155.659h28.42v-3.178h-28.42v3.178zm0 7.192h28.42v-3.178h-28.42v3.178zm0 7.192h28.42v-3.178h-28.42v3.178zm0 7.192h28.42v-3.178h-28.42v3.178zm-4.414-24.754v3.178h-3.354v-3.178h.293l-.719-.823.72.823h2.71l1.764-2.281-1.765 2.28h.35zm-3.354 10.37h3.354v-3.178h-3.354v3.178zm0 7.192h3.354v-3.178h-3.354v3.178zm0 7.192h3.354v-3.178h-3.354v3.178zm47.102-50.203a3.827 3.827 0 0 0-3.826-3.83h-11.588v2.684h-28.028v-2.684h-2.106v8.789a3.825 3.825 0 0 1-3.822 3.828h-9.487v45.693h58.857v-54.48z" fill="#FFF" mask="url(#b)"/><path d="M259.534 131.99v-8.788l-13.309 12.616h9.485a3.826 3.826 0 0 0 3.824-3.828" fill="#BBBCBC" mask="url(#b)"/><path fill="#C0C0BE" mask="url(#b)" d="M265.748 155.659h28.42v-3.178h-28.42zM265.748 162.85h28.42v-3.177h-28.42zM265.748 170.043h28.42v-3.178h-28.42zM265.748 177.235h28.42v-3.178h-28.42zM259.708 154.124l1.273-1.642h-2.708z"/><path fill="#C0C0BE" mask="url(#b)" d="M258.273 152.481h-.293v3.178h3.353v-3.178h-.352l-1.273 1.642zM257.98 162.85h3.353v-3.177h-3.354zM257.98 170.043h3.353v-3.178h-3.354zM257.98 177.235h3.353v-3.178h-3.354z"/><path d="M275.653 118.16c.569 0 1.049.335 1.294.808h12.61a4.902 4.902 0 0 0-4.792-3.894h-5.49v-1.013a3.625 3.625 0 0 0-3.622-3.627c-2 0-3.622 1.623-3.622 3.627v1.013h-5.49a4.905 4.905 0 0 0-4.795 3.894h12.613a1.461 1.461 0 0 1 1.294-.808" fill="#4C4F50" mask="url(#b)"/><path d="M261.64 123.201h28.026v-3.22a4.97 4.97 0 0 0-.107-1.014h-12.612c.105.202.18.423.18.67a1.474 1.474 0 0 1-2.948 0c0-.247.074-.468.18-.67h-12.613a4.97 4.97 0 0 0-.107 1.015v3.22zM261.64 125.888h28.027v-2.686H261.64z" fill="#4C4F50" mask="url(#b)"/><path fill="#85C556" mask="url(#b)" d="M259.625 156.176l-3.096-3.547 1.776-1.555 1.209 1.388 2.163-2.792 1.866 1.449z"/><path d="M86.463 107.065v49.424s-.113-13.05 31.167-13.05c31.279 0-.894-36.374-.894-36.374H86.463z" fill="#2F3237" mask="url(#b)"/><path d="M148.856 107.065v49.424s.113-13.05-31.165-13.05c-31.28 0 .892-36.374.892-36.374h30.273z" fill="#2F3237" mask="url(#b)"/><path d="M148.795 107.065c0 19.382-13.953 35.094-31.165 35.094-17.214 0-31.168-15.712-31.168-35.094 0-19.38 13.954-35.093 31.168-35.093 17.212 0 31.165 15.713 31.165 35.093" fill="#2F3237" mask="url(#b)"/><path d="M127.93 131.464h-20.428c-5.51 0-23.62 11.425-23.62 22.062v27.987h67.667v-27.987c0-10.637-18.111-22.062-23.619-22.062" fill="#8E9738" mask="url(#b)"/><path d="M127.327 130.392c-1.18 0-9.611 3.61-9.611 3.61s-9.925-2.829-10.692-2.98c-.766-.15-6.29 2.783-6.29 2.783 1.384 2.035 5.319 11.511 16.982 11.511 11.662 0 15.607-9.474 16.993-11.511 0 0-6.201-3.413-7.382-3.413" fill="#E7E6E2" mask="url(#b)"/><path d="M92.021 100.93s-.135.273-.309.151a2.16 2.16 0 0 0-.78-.15 2.162 2.162 0 0 0-2.161 2.165v8.745c0 1.196.967 2.166 2.161 2.166.479 0 .917-.16 1.275-.425 2.909 13.322 13.226 23.17 25.508 23.17 12.283 0 22.598-9.848 25.508-23.17.359.265.797.425 1.275.425 1.195 0 2.163-.97 2.163-2.166v-8.745a2.164 2.164 0 0 0-2.163-2.165 2.16 2.16 0 0 0-.78.15c-27.694 3.218-51.697-.15-51.697-.15" fill="#E7E6E2" mask="url(#b)"/><path fill="#FFF" mask="url(#b)" d="M134.71 132.663l-28.765 47.706h32.563v-45.42"/><path fill="#FFF" mask="url(#b)" d="M100.733 132.583l14.424 46.867h-4.633"/></g><g><path d="M109.01 112.995c-1.838.134-2.353-2.485-1.799-4.196.104-.324.712-1.799 1.79-1.799 1.075 0 1.55.806 1.616.944.791 1.668.404 4.904-1.608 5.051M127.99 112.995c1.838.134 2.353-2.485 1.799-4.196-.104-.324-.712-1.799-1.79-1.799-1.075 0-1.55.806-1.616.944-.791 1.668-.404 4.904 1.608 5.051" fill="#635E59"/><path d="M118.803 115.074c1.04-.146 2.054-.11 2.528.422 1.16 1.298.827 2.797-1.125 3.905-.977.553-2.359.78-3.206.438" stroke="#D1BFA3" stroke-width=".506" stroke-linecap="round"/><path d="M126 124s-2.103 5.188-7.955 4.995C112.194 128.8 110 124 110 124" stroke="#D19E9C" stroke-width="1.013" stroke-linecap="round"/></g></g><g><path d="M230.178 109.18h-.062c0-19.445-14.02-35.208-31.313-35.208S167.49 89.735 167.49 109.18v.017c-.006 16.607-8.564 26.1-8.564 26.1s8.451 10.374 39.877 10.374l.03-.001h.03c31.428 0 39.879-10.373 39.879-10.373s-8.565-9.5-8.565-26.117" fill="#E57F68"/><path d="M208.4 134.482h-19.13c-5.157 0-22.116 10.683-22.116 20.63v26.168h63.362v-26.169c0-9.946-16.959-20.629-22.116-20.629" fill="#624B7F"/><path d="M226.428 105.077a2.06 2.06 0 0 0-2.028-1.714c-.263 0-.513.054-.743.143a2.23 2.23 0 0 1-.088.008c-7.65-10.417-22.57-.806-33.956-10.754-1.459-1.556-2.22-2.64-2.42-2.64 0 0-11.043 9.574-12.882 13.243 0 0-.13.262-.297.143a2.057 2.057 0 0 0-.743-.143 2.062 2.062 0 0 0-2.03 1.714 2.048 2.048 0 0 0-.072.512v8.346c0 1.141.925 2.067 2.067 2.067.458 0 .877-.153 1.22-.406 1.805 8.26 6.609 15.1 12.963 18.894-1.768.738-4.492 2.18-4.492 2.18 1.297 1.904 4.98 10.765 15.902 10.765 10.92 0 14.615-8.86 15.913-10.765 0 0-2.377-1.304-4.382-2.244 6.3-3.808 11.058-10.618 12.854-18.83.343.253.762.406 1.219.406a2.067 2.067 0 0 0 2.067-2.067v-8.346c0-.178-.03-.348-.072-.512" fill="#E7E5E2"/><path d="M223.295 172.186h-19.623a1.584 1.584 0 0 1-1.585-1.585v-10.55c0-.876.71-1.586 1.585-1.586h19.623c.876 0 1.586.71 1.586 1.586v10.55c0 .876-.71 1.585-1.586 1.585" fill="#D2242A"/><path d="M218.652 165.56a5.001 5.001 0 1 1-10.002 0 5.001 5.001 0 1 1 10.003 0M207.174 167.765h-.975l1.042-2.556h.978zM219.469 167.765h-.605l1.043-2.556h.604zM221.137 167.765h-.256l1.04-2.556h.256z" fill="#FFF"/><path d="M209.854 167.753h.768c.04 0 .07-.03.07-.07v-2.39c0-.04-.03-.07-.07-.07h-.776c-.051 0-.089.04-.089.09l-.305.753c-.019.039.012.086.053.086h.22a.06.06 0 0 1 .06.06v1.472c0 .038.03.069.07.069" fill="#C52D35"/><path d="M211.522 167.753h.77c.04 0 .074-.03.074-.07v-2.39c0-.04-.034-.07-.073-.07h-1.198a.09.09 0 0 0-.09.09l-.307.753-.105.086h.612c.137 0 .248.108.248.246v1.286c0 .038.03.069.07.069M214.966 165.223h-.77a.07.07 0 0 0-.07.07v2.39c0 .04.031.07.07.07h.778c.052 0 .09-.04.09-.09l.305-.753c.019-.04-.01-.086-.058-.086h-.212a.06.06 0 0 1-.06-.06v-1.472c0-.038-.035-.069-.073-.069" fill="#C52D35"/><path d="M211.799 167.753h.506a.09.09 0 0 0 .089-.09l.305-.754a.061.061 0 0 0-.056-.086h-.214l-.63.93zM217.027 165.223h.915c.045 0 .077.042.058.084l-.97 2.407c-.007.025-.029.039-.056.039h-.829l.822-2.489a.065.065 0 0 1 .06-.04" fill="#C52D35"/><path d="M215.879 165.223h-1.295c-.092 0 .372.09.405.173l.916 2.277c.018.05.065.08.117.08h.785l-.807-2.444a.125.125 0 0 0-.121-.086M213.393 165.223c.429 0 .795.295.795.811 0 .51-.065.54-.065.54s-.072-.488-.45-.488c-.369 0-.453.216-.453.377 0 .187.189.361.294.361h.674l-.398.882a.081.081 0 0 1-.074.047h-.306c-.32 0-1.158-.42-1.158-1.234 0-.814.622-1.296 1.141-1.296" fill="#C52D35"/><path d="M214.774 159.895h-2.123a.284.284 0 0 1-.285-.284v-.358c0-.157.127-.284.285-.284h2.123c.157 0 .284.127.284.284v.358a.284.284 0 0 1-.284.284" fill="#5A1F57"/><path fill="#835184" d="M213.098 159.52h1.23v-3.68h-1.23z"/></g><g><path d="M190.01 112.995c-1.838.134-2.353-2.485-1.799-4.196.104-.324.712-1.799 1.79-1.799 1.075 0 1.55.806 1.616.944.791 1.668.404 4.904-1.608 5.051M208.99 112.995c1.838.134 2.353-2.485 1.799-4.196-.104-.324-.712-1.799-1.79-1.799-1.075 0-1.55.806-1.616.944-.791 1.668-.404 4.904 1.608 5.051" fill="#635E59"/><path d="M199.803 115.074c1.04-.146 2.054-.11 2.528.422 1.16 1.298.827 2.797-1.125 3.905-.977.553-2.359.78-3.206.438" stroke="#D1BFA3" stroke-width=".506" stroke-linecap="round"/><path d="M207 124s-2.103 5.188-7.955 4.995C193.194 128.8 191 124 191 124" stroke="#D19E9C" stroke-width="1.013" stroke-linecap="round"/></g></g></svg>