<?xml version="1.0" encoding="UTF-8"?>
<svg width="137px" height="101px" viewBox="0 0 137 101" version="1.1" xmlns="http://www.w3.org/2000/svg" xmlns:xlink="http://www.w3.org/1999/xlink">
    <!-- Generator: Sketch 47.1 (45422) - http://www.bohemiancoding.com/sketch -->
    <title>Aktivitetsplikten</title>
    <desc>Created with Sketch.</desc>
    <defs>
        <polygon id="path-1" points="2.41562454 4.62427456 2.41562454 0.0732568047 0.0607490706 0.0732568047 0.0607490706 4.62427456 2.41562454 4.62427456"></polygon>
        <rect id="path-3" x="48.9361702" y="82.9148936" width="7.44680851" height="1.06382979"></rect>
    </defs>
    <g id="Landingssiden" stroke="none" stroke-width="1" fill="none" fill-rule="evenodd">
        <g id="Illustrasjoner-til-landingssiden" transform="translate(-100.000000, -697.000000)">
            <g id="Aktivitetsplikten" transform="translate(100.000000, 697.000000)">
                <g id="Group-6">
                    <g id="Group-7">
                        <path d="M66.2904769,32.205242 L66.2333289,32.205242 C66.2333289,14.5074688 53.1904909,0.160319394 37.1009508,0.160319394 C21.0114107,0.160319394 7.96857274,14.5074688 7.96857274,32.205242 C7.96857274,32.2111535 7.96976333,32.2158827 7.96976333,32.2217942 C7.96381041,47.3350707 0,55.9764645 0,55.9764645 C0,55.9764645 7.86499201,65.4182721 37.1009508,65.4182721 L37.1307154,65.4170898 C37.1402401,65.4170898 37.1485741,65.4182721 37.1580988,65.4182721 C66.3964388,65.4182721 74.2590496,55.9764645 74.2590496,55.9764645 C74.2590496,55.9764645 66.2904769,47.3291592 66.2904769,32.205242" id="Fill-2" fill="#E57F68"></path>
                        <path d="M47.086919,56.4171752 L38.2540711,56.4171752 L29.4224049,56.4171752 C24.6603478,56.4171752 9.00109692,66.1775874 9.00109692,75.2650723 L9.00109692,99.1723855 L67.5082269,99.1723855 L67.5082269,75.2650723 C67.5082269,66.1775874 51.8477944,56.4171752 47.086919,56.4171752" id="Fill-3" fill="#591F57"></path>
                        <path d="M62.9418236,28.2054827 C62.7916284,27.2886855 62.0314095,26.5909893 61.1117526,26.5909893 C60.8737509,26.5909893 60.648458,26.6411744 60.4393401,26.7256324 C60.4127671,26.7293045 60.3873494,26.7305285 60.3607764,26.7342006 C53.4529513,16.9162687 39.9839055,25.9728549 29.7036198,16.5992454 C28.3865232,15.1328593 27.6990912,14.1120196 27.5200123,14.1120196 C27.5200123,14.1120196 17.5493599,23.133109 15.8879696,26.5909893 C15.8879696,26.5909893 15.7724348,26.837019 15.6210843,26.7256324 C15.4119663,26.6411744 15.1866735,26.5909893 14.9498271,26.5909893 C14.0278595,26.5909893 13.2676406,27.2886855 13.11629,28.2054827 C13.0781635,28.3609344 13.0515905,28.520058 13.0515905,28.6877499 L13.0515905,36.5521325 C13.0515905,37.6280535 13.8869071,38.4995617 14.9186327,38.4995617 C15.3310919,38.4995617 15.7088907,38.3551263 16.018524,38.1188888 C17.6498752,45.9000375 21.9858959,52.3457711 27.7233535,55.9211581 C26.1266627,56.6164062 23.6680824,57.9750777 23.6680824,57.9750777 C24.8384498,59.7695034 28.1635411,68.1186012 38.0244354,68.1186012 C47.8841744,68.1186012 51.2196638,59.7707274 52.3911866,57.9750777 C52.3911866,57.9750777 50.2445502,56.7461532 48.4352754,55.8599566 C54.1230531,52.2723294 58.4186366,45.8547484 60.0395897,38.1188888 C60.3492229,38.3551263 60.7270217,38.4995617 61.1406363,38.4995617 C62.1712066,38.4995617 63.0076785,37.6280535 63.0076785,36.5521325 L63.0076785,28.6877499 C63.0076785,28.520058 62.9799501,28.3609344 62.9418236,28.2054827" id="Fill-4" fill="#E7E5E2"></path>
                        <g id="Smil-dame" transform="translate(27.219317, 27.667672)">
                            <path d="M1.84569653,6.2100872 C0.204598534,6.33370826 -0.254727442,3.91459145 0.239756818,2.33473692 C0.332756151,2.03532444 0.876008355,0.672090305 1.83775756,0.672090305 C2.79837263,0.672090305 3.22254032,1.41721911 3.2815155,1.54537673 C3.98808361,3.08553642 3.64103732,6.07399061 1.84569653,6.2100872" id="Fill-41" fill="#635E59"></path>
                            <path d="M20.1613482,6.2100872 C21.8024462,6.33370826 22.2617721,3.91459145 21.7672879,2.33473692 C21.6742885,2.03532444 21.1310363,0.672090305 20.1692871,0.672090305 C19.2086721,0.672090305 18.7845044,1.41721911 18.7255292,1.54537673 C18.0189611,3.08553642 18.3660074,6.07399061 20.1613482,6.2100872" id="Fill-43" fill="#635E59"></path>
                            <path d="M11.4376705,8.43084323 C12.4175659,8.28000285 13.3747785,8.31629527 13.8238973,8.86748644 C14.9183406,10.2125744 14.6041843,11.7652096 12.7612098,12.9118233 C11.8402895,13.4845631 10.5360306,13.7193297 9.73646314,13.3654786" id="Stroke-45" stroke="#D1BFA3" stroke-width="0.506" stroke-linecap="round"></path>
                            <path d="M18.5077747,17.48671 C18.5077747,17.48671 16.43457,22.2353467 10.6663431,22.0584212 C4.89811611,21.8814956 2.73531454,17.48671 2.73531454,17.48671" id="Stroke-47" stroke="#D19E9C" stroke-width="0.6" stroke-linecap="round"></path>
                        </g>
                        <g id="Navkort" transform="translate(45.744681, 77.659574)">
                            <path d="M0.575571046,10.3019123 C0.257750172,10.3019123 0,10.0445881 0,9.72634122 L0,2.27927838 C0,1.96145751 0.257750172,1.70413337 0.575571046,1.70413337 L13.7089009,1.70413337 C14.0267218,1.70413337 14.284472,1.96145751 14.284472,2.27927838 L14.284472,9.72634122 C14.284472,10.0445881 14.0267218,10.3019123 13.7089009,10.3019123 L0.575571046,10.3019123 Z" id="Fill-563" fill="#C30000"></path>
                            <path d="M7.97449211,2.28439078 L6.49360021,2.28439078 C6.43693778,2.28439078 6.39050014,2.23837918 6.39050014,2.18129072 L6.39050014,1.80723344 C6.39050014,1.75057101 6.43693778,1.70413337 6.49360021,1.70413337 L7.97449211,1.70413337 C8.03158058,1.70413337 8.07759218,1.75057101 8.07759218,1.80723344 L8.07759218,2.18129072 C8.07759218,2.23837918 8.03158058,2.28439078 7.97449211,2.28439078" id="Fill-564" fill="#5A1F57"></path>
                            <polygon id="Fill-565" fill="#835184" points="6.81653349 2.30739659 7.58807987 2.30739659 7.58807987 2.84217094e-14 6.81653349 2.84217094e-14"></polygon>
                        </g>
                    </g>
                </g>
                <polygon id="Fill-36" stroke="#525759" fill="#525759" stroke-linecap="round" points="3.19148936 100 136.170213 100 136.170213 95.7446809 3.19148936 95.7446809"></polygon>
                <g id="Group-11" transform="translate(67.021277, 54.255319)" fill="#ACB3BB">
                    <path d="M54.8298354,35.7106661 L3.50674237,35.7106661 C1.57011192,35.7106661 0,34.1422548 0,32.2077219 L0,3.696006 C0,1.76147311 1.57011192,0.192108328 3.50674237,0.192108328 L54.8298354,0.192108328 C56.7664659,0.192108328 58.3365778,1.76147311 58.3365778,3.696006 L58.3365778,32.2077219 C58.3365778,34.1422548 56.7664659,35.7106661 54.8298354,35.7106661" id="Fill-47"></path>
                    <path d="M56.5498,40.5447162 L1.78677782,40.5447162 C0.799850328,40.5447162 0,39.7447787 0,38.7589202 L0,38.1515779 C0,37.1657193 0.799850328,36.3667353 1.78677782,36.3667353 L56.5498,36.3667353 C57.5367275,36.3667353 58.3365778,37.1657193 58.3365778,38.1515779 L58.3365778,38.7589202 C58.3365778,39.7447787 57.5367275,40.5447162 56.5498,40.5447162" id="Fill-59"></path>
                </g>
                <g id="NAV-logo-/-rød" transform="translate(82.978723, 63.829787)">
                    <g id="Page-1-Copy">
                        <path d="M13.5091595,17.9938225 C8.48094758,17.9938225 4.40380632,13.9659763 4.40380632,8.9975503 C4.40380632,4.02859172 8.48094758,0 13.5091595,0 C18.5392041,0 22.6167766,4.02859172 22.6167766,8.9975503 C22.6167766,13.9659763 18.5392041,17.9938225 13.5091595,17.9938225 Z" id="Fill-1" fill="#C30000"></path>
                        <polygon id="Fill-3" fill="#C30000" points="0 12.9257893 1.86128253 8.3747716 3.64968773 8.3747716 1.79077695 12.9257893"></polygon>
                        <polygon id="Fill-5" fill="#C30000" points="22.9675688 12.9257893 24.805026 8.3747716 25.7800297 8.3747716 23.9426803 12.9257893"></polygon>
                        <g id="Group-9" transform="translate(26.520446, 8.301515)">
                            <mask id="mask-2" fill="white">
                                <use xlink:href="#path-1"></use>
                            </mask>
                            <g id="Clip-8"></g>
                            <polygon id="Fill-7" fill="#C30000" mask="url(#mask-2)" points="0.0607490706 4.62427456 1.8978829 0.0732568047 2.41567844 0.0732568047 0.578328996 4.62427456"></polygon>
                        </g>
                        <path d="M21.2767717,8.3747716 L19.6579465,8.3747716 C19.6579465,8.3747716 19.5463665,8.3747716 19.5069093,8.47212071 L18.6110357,11.1816 L17.7159167,8.47212071 C17.6764595,8.3747716 17.5642327,8.3747716 17.5642327,8.3747716 L14.4516379,8.3747716 C14.3842587,8.3747716 14.327768,8.43036923 14.327768,8.49651124 L14.327768,9.41664142 C14.327768,8.68673609 13.5416416,8.3747716 13.0813071,8.3747716 C12.0504595,8.3747716 11.3603888,9.0455645 11.1455301,10.065387 C11.133887,9.3888426 11.0769651,9.1464284 10.8925078,8.89815621 C10.8077717,8.77652308 10.6853033,8.67427456 10.5519465,8.58970651 C10.2773628,8.43079527 10.0308089,8.3747716 9.50093903,8.3747716 L8.87878662,8.3747716 C8.87878662,8.3747716 8.76634424,8.3747716 8.72667138,8.47212071 L8.16057844,9.85812071 L8.16057844,8.49651124 C8.16057844,8.43036923 8.10451896,8.3747716 8.03724758,8.3747716 L6.59759703,8.3747716 C6.59759703,8.3747716 6.48644833,8.3747716 6.44602082,8.47212071 L5.85750409,9.91329231 C5.85750409,9.91329231 5.79874944,10.0573988 5.93307658,10.0573988 L6.48644833,10.0573988 L6.48644833,12.8036237 C6.48644833,12.8717893 6.5407829,12.9257893 6.6101026,12.9257893 L8.03724758,12.9257893 C8.10451896,12.9257893 8.16057844,12.8717893 8.16057844,12.8036237 L8.16057844,10.0573988 L8.71686097,10.0573988 C9.03607658,10.0573988 9.10367138,10.066026 9.22786468,10.1232213 C9.30268253,10.1511266 9.37006171,10.2075763 9.40682379,10.2726533 C9.48207286,10.4126059 9.50093903,10.5806769 9.50093903,11.0762627 L9.50093903,12.8036237 C9.50093903,12.8717893 9.55635167,12.9257893 9.62480892,12.9257893 L10.9926602,12.9257893 C10.9926602,12.9257893 11.147255,12.9257893 11.2083814,12.7749728 L11.5115338,12.0347361 C11.914623,12.5925231 12.5780654,12.9257893 13.402571,12.9257893 L13.582716,12.9257893 C13.582716,12.9257893 13.738281,12.9257893 13.7998387,12.7749728 L14.327768,11.4832331 L14.327768,12.8036237 C14.327768,12.8717893 14.3842587,12.9257893 14.4516379,12.9257893 L15.8479502,12.9257893 C15.8479502,12.9257893 16.0020059,12.9257893 16.063887,12.7749728 C16.063887,12.7749728 16.6223257,11.4051621 16.6244818,11.3948308 L16.6253442,11.3948308 C16.6467978,11.2808663 16.5010431,11.2808663 16.5010431,11.2808663 L16.0026528,11.2808663 L16.0026528,8.9304284 L17.5707011,12.7749728 C17.6319353,12.9257893 17.7863145,12.9257893 17.7863145,12.9257893 L19.4358647,12.9257893 C19.4358647,12.9257893 19.5911063,12.9257893 19.6523405,12.7749728 L21.3907234,8.52217988 C21.4508796,8.3747716 21.2767717,8.3747716 21.2767717,8.3747716 L21.2767717,8.3747716 Z M14.327768,11.2808663 L13.3898498,11.2808663 C13.0165152,11.2808663 12.7128238,10.9822154 12.7128238,10.6129491 C12.7128238,10.2443219 13.0165152,9.94375385 13.3898498,9.94375385 L13.6521435,9.94375385 C14.0245078,9.94375385 14.327768,10.2443219 14.327768,10.6129491 L14.327768,11.2808663 Z" id="Fill-10" fill="#FEFEFE"></path>
                    </g>
                </g>
                <g id="Rectangle-7">
                    <use fill="#FFFFFF" fill-rule="evenodd" xlink:href="#path-3"></use>
                    <rect stroke="#FFFFFF" stroke-width="1" x="49.4361702" y="83.4148936" width="6.44680851" height="1"></rect>
                </g>
            </g>
        </g>
    </g>
</svg>
