<?xml version="1.0" encoding="UTF-8"?>
<svg width="124px" height="125px" viewBox="0 0 124 125" version="1.1" xmlns="http://www.w3.org/2000/svg" xmlns:xlink="http://www.w3.org/1999/xlink">
    <!-- Generator: Sketch 47.1 (45422) - http://www.bohemiancoding.com/sketch -->
    <title>Group</title>
    <desc>Created with Sketch.</desc>
    <defs></defs>
    <g id="Illustrasjoner" stroke="none" stroke-width="1" fill="none" fill-rule="evenodd">
        <g id="Artboard-2" transform="translate(-104.000000, -126.000000)">
            <g id="Group" transform="translate(104.000000, 126.000000)">
                <g id="Group-84" transform="translate(87.775891, 67.819149)">
                    <path d="M24.0215717,54.5212766 L3.26875088,54.5212766 C1.46373165,54.5212766 0,53.0650769 0,51.2693458 L0,10.425783 C0,8.62947836 1.46373165,7.17385218 3.26875088,7.17385218 L24.0215717,7.17385218 C25.8265909,7.17385218 27.2903226,8.62947836 27.2903226,10.425783 L27.2903226,51.2693458 C27.2903226,53.0650769 25.8265909,54.5212766 24.0215717,54.5212766" id="Fill-376" fill="#B5B9C1"></path>
                    <polygon id="Fill-377" fill="#657585" points="2.87266553 47.3474244 24.417657 47.3474244 24.417657 12.9129339 2.87266553 12.9129339"></polygon>
                    <path d="M15.7996604,50.9343505 C15.7996604,52.1227336 14.8347813,53.0865062 13.6451613,53.0865062 C12.4555413,53.0865062 11.4906621,52.1227336 11.4906621,50.9343505 C11.4906621,49.7459674 12.4555413,48.7821948 13.6451613,48.7821948 C14.8347813,48.7821948 15.7996604,49.7459674 15.7996604,50.9343505" id="Fill-378" fill="#657585"></path>
                    <path d="M35.9083192,8.60862262 C35.9083192,13.3628768 32.0498732,17.2172452 27.2905894,17.2172452 C22.530772,17.2172452 18.672326,13.3628768 18.672326,8.60862262 C18.672326,3.85436844 22.530772,0 27.2905894,0 C32.0498732,0 35.9083192,3.85436844 35.9083192,8.60862262" id="Fill-379" fill="#CD2027"></path>
                    <path d="M24.417657,11.4781635 L24.417657,10.0894079 L26.2280787,10.0894079 L26.2280787,6.26591557 L25.108732,6.26591557 L25.108732,5.08905689 C25.9386708,4.97791489 26.3786228,4.82730191 26.9068247,4.30431131 L28.3525664,4.30431131 L28.3525664,10.0894079 L30.1629881,10.0894079 L30.1629881,11.4781635 L24.417657,11.4781635 Z" id="Fill-380" fill="#FFFFFF"></path>
                </g>
                <g id="Dame-med-håndskade">
                    <path d="M3.91400552,40.4344995 L3.91400552,95.9783058 C3.91400552,95.9783058 3.77449698,81.4162914 39.4210858,81.4162914 C75.0691129,81.4162914 38.3956262,40.4344995 38.3956262,40.4344995 L3.91400552,40.4344995 Z" id="Fill-63" fill="#C4AD86"></path>
                    <path d="M74.7880823,40.4344995 L75.4731124,95.9783058 C75.4731124,95.9783058 75.3652449,81.4162914 39.7200943,81.4162914 C4.07206726,81.4162914 40.5010545,40.4344995 40.5010545,40.4344995 L74.7880823,40.4344995 Z" id="Fill-65" fill="#C4AD86"></path>
                    <path d="M74.9296043,39.9975818 C74.9296043,61.9522665 59.0270692,79.7496479 39.4138947,79.7496479 C19.7964054,79.7496479 3.89674673,61.9522665 3.89674673,39.9975818 C3.89674673,18.0457602 19.7964054,0.246947256 39.4138947,0.246947256 C59.0270692,0.246947256 74.9296043,18.0457602 74.9296043,39.9975818" id="Fill-67" fill="#C4AD86"></path>
                    <path d="M51.1523156,67.342302 L39.511263,67.342302 L27.8702103,67.342302 C21.5937644,67.342302 0.73220409,80.5772433 0.73220409,92.6254063 L0.73220409,124.324844 L78.6527564,124.324844 L78.6527564,92.6254063 C78.6527564,80.5772433 57.4273234,67.342302 51.1523156,67.342302" id="Fill-69" fill="#8E9738"></path>
                    <path d="M50.4641215,66.4195066 C49.117936,66.4195066 39.5119821,70.5109574 39.5119821,70.5109574 C39.5119821,70.5109574 28.2002847,67.3056536 27.3272776,67.1367273 C26.4528324,66.9663695 20.1591276,70.2861996 20.1591276,70.2861996 C21.7354302,72.5924722 26.2212769,83.3264463 39.5119821,83.3264463 C52.8026873,83.3264463 57.2986016,72.5924722 58.8777807,70.2861996 C58.8777807,70.2861996 51.8103069,66.4195066 50.4641215,66.4195066" id="Fill-71" fill="#E7E5E2"></path>
                    <path d="M10.2301467,33.0487007 C10.2301467,33.0487007 10.0776941,33.3579217 9.87777979,33.2190586 C9.60163918,33.1116902 9.58725686,33.0487007 9.27516044,33.0487007 C7.9131544,33.0487007 7.09480019,34.1467213 7.09480019,35.5009944 L7.09480019,45.4060846 C7.09480019,46.7632208 7.9131544,47.8598098 9.27516044,47.8598098 C9.8202505,47.8598098 10.1769321,47.6794309 10.5839519,47.3787995 C13.8990774,62.4704979 25.5861535,73.6267875 39.5815925,73.6267875 C53.5784698,73.6267875 65.3000635,62.4704979 68.615189,47.3787995 C69.023647,47.6794309 69.4019021,47.8598098 69.9469922,47.8598098 C71.3104365,47.8598098 72.2913109,46.7632208 72.2913109,45.4060846 L72.2913109,35.5009944 C72.2913109,34.1467213 71.2903012,33.0487007 69.9311716,33.0487007 C69.6147605,33.0487007 69.3472493,33.3679427 69.0926822,33.2190586 C39.4133194,15.8883717 10.2301467,33.0487007 10.2301467,33.0487007" id="Fill-73" fill="#E7E5E2"></path>
                    <polyline id="Fill-75" fill="#FFFFFF" points="58.6496771 69.8943766 26.096726 124.324415 62.752954 124.324415 62.752954 72.0918493"></polyline>
                    <polyline id="Fill-77" fill="#FFFFFF" points="19.973308 69.6538715 36.5949592 122.742521 30.9470208 122.742521"></polyline>
                </g>
                <g id="Undrende-dame" transform="translate(26.598755, 37.234043)">
                    <path d="M0.327401828,1.75381077 C0.460820832,1.45003562 1.23079315,0.0661710228 2.59391743,0.0661710228 C3.95543425,0.0661710228 4.55662349,0.823197996 4.6402113,0.953387348 C5.64165755,2.51565957 5.14977545,5.55019657 2.60516963,5.6884223 C0.279178092,5.81378982 -0.371842346,3.35787217 0.327401828,1.75381077 Z" id="Fill-73" fill="#669DB4"></path>
                    <path d="M27.0306378,1.75381077 C26.8988263,1.45003562 26.1288539,0.0661710228 24.7657297,0.0661710228 C23.4042128,0.0661710228 22.8030236,0.823197996 22.7194358,0.953387348 C21.7179895,2.51565957 22.2082642,5.55019657 24.7544774,5.6884223 C27.080469,5.81378982 27.7314894,3.35787217 27.0306378,1.75381077 Z" id="Fill-75" fill="#5B93AB"></path>
                    <path d="M14.7412854,9.05463081 C16.0060909,8.86017983 17.2387279,8.90696503 17.8177603,9.61751521 C19.2287861,11.3514916 18.8237559,13.3530208 16.4476762,14.8311406 C15.2603674,15.5694695 13.5788341,15.8721112 12.547981,15.4159556" id="Stroke-77" stroke="#D1BFA3" stroke-width="0.5" stroke-linecap="round"></path>
                    <path d="M4.96411954,23.642109 C4.96411954,23.642109 6.04322527,24.8863029 9.04805221,24.8629103 L12.0543414,24.8395177" id="Stroke-79" stroke="#D19E9C" stroke-width="0.8" stroke-linecap="round"></path>
                </g>
            </g>
        </g>
    </g>
</svg>
