<?xml version="1.0" encoding="UTF-8"?>
<svg width="121px" height="100px" viewBox="0 0 121 100" version="1.1" xmlns="http://www.w3.org/2000/svg" xmlns:xlink="http://www.w3.org/1999/xlink">
    <!-- Generator: Sketch 47.1 (45422) - http://www.bohemiancoding.com/sketch -->
    <title>Hva skjer i sluttfasen</title>
    <desc>Created with Sketch.</desc>
    <defs></defs>
    <g id="Landingssiden" stroke="none" stroke-width="1" fill="none" fill-rule="evenodd">
        <g id="Illustrasjoner-til-landingssiden" transform="translate(-109.000000, -1222.000000)">
            <g id="Hva-skjer-i-sluttfasen" transform="translate(109.000000, 1222.000000)">
                <g id="Group-167">
                    <g id="Group-166" fill="#BCCFCE">
                        <path d="M106.849315,49.3150685 C106.849315,69.7416032 85.3829509,86.3013699 58.9041096,86.3013699 C32.4252683,86.3013699 10.9589041,69.7416032 10.9589041,49.3150685 C10.9589041,28.8877274 32.4252683,12.3287671 58.9041096,12.3287671 C85.3829509,12.3287671 106.849315,28.8877274 106.849315,49.3150685" id="Fill-2"></path>
                        <path d="M106.849315,98.6305633 C106.849315,99.3877612 106.235562,100 105.479452,100 C104.72249,100 104.109589,99.3877612 104.109589,98.6305633 C104.109589,97.8733655 104.72249,97.260274 105.479452,97.260274 C106.235562,97.260274 106.849315,97.8733655 106.849315,98.6305633" id="Fill-3"></path>
                        <path d="M104.109589,93.8359766 C104.109589,94.9698054 102.88286,95.890411 101.369863,95.890411 C99.8568656,95.890411 98.630137,94.9698054 98.630137,93.8359766 C98.630137,92.7014275 99.8568656,91.7808219 101.369863,91.7808219 C102.88286,91.7808219 104.109589,92.7014275 104.109589,93.8359766" id="Fill-4"></path>
                        <path d="M98.630137,86.9863014 C98.630137,88.8773378 96.7900225,90.4109589 94.5210634,90.4109589 C92.2510734,90.4109589 90.4109589,88.8773378 90.4109589,86.9863014 C90.4109589,85.0944058 92.2510734,83.5616438 94.5210634,83.5616438 C96.7900225,83.5616438 98.630137,85.0944058 98.630137,86.9863014" id="Fill-5"></path>
                        <path d="M75.3424658,80.1374068 C75.3424658,82.0286418 73.5020802,83.5616438 71.2328767,83.5616438 C68.9626643,83.5616438 67.1232877,82.0286418 67.1232877,80.1374068 C67.1232877,78.2453308 68.9626643,76.7123288 71.2328767,76.7123288 C73.5020802,76.7123288 75.3424658,78.2453308 75.3424658,80.1374068" id="Fill-6"></path>
                        <path d="M58.9041096,82.1917808 C58.9041096,85.9742742 54.9170084,89.0410959 49.9994796,89.0410959 C45.0819508,89.0410959 41.0958904,85.9742742 41.0958904,82.1917808 C41.0958904,78.4092874 45.0819508,75.3424658 49.9994796,75.3424658 C54.9170084,75.3424658 58.9041096,78.4092874 58.9041096,82.1917808" id="Fill-7"></path>
                        <path d="M94.5205479,16.4383562 C94.5205479,20.2208496 90.5334468,23.2876712 85.615918,23.2876712 C80.6983892,23.2876712 76.7123288,20.2208496 76.7123288,16.4383562 C76.7123288,12.6558627 80.6983892,9.5890411 85.615918,9.5890411 C90.5334468,9.5890411 94.5205479,12.6558627 94.5205479,16.4383562" id="Fill-8"></path>
                        <path d="M120.547945,47.9452055 C120.547945,51.7276989 116.560844,54.7945205 111.643315,54.7945205 C106.725786,54.7945205 102.739726,51.7276989 102.739726,47.9452055 C102.739726,44.1627121 106.725786,41.0958904 111.643315,41.0958904 C116.560844,41.0958904 120.547945,44.1627121 120.547945,47.9452055" id="Fill-9"></path>
                        <path d="M26.0273973,49.3154687 C26.0273973,53.0977411 22.0402961,56.1643836 17.1227673,56.1643836 C12.2052385,56.1643836 8.21917808,53.0977411 8.21917808,49.3154687 C8.21917808,45.5323959 12.2052385,42.4657534 17.1227673,42.4657534 C22.0402961,42.4657534 26.0273973,45.5323959 26.0273973,49.3154687" id="Fill-10"></path>
                        <path d="M49.3150685,13.6986301 C49.3150685,17.4811236 45.3290081,20.5479452 40.4104385,20.5479452 C35.4929097,20.5479452 31.5068493,17.4811236 31.5068493,13.6986301 C31.5068493,9.91533619 35.4929097,6.84931507 40.4104385,6.84931507 C45.3290081,6.84931507 49.3150685,9.91533619 49.3150685,13.6986301" id="Fill-11"></path>
                        <path d="M31.5068493,31.5068493 C31.5068493,35.2893427 27.5197482,38.3561644 22.6022194,38.3561644 C17.6846905,38.3561644 13.6986301,35.2893427 13.6986301,31.5068493 C13.6986301,27.7243559 17.6846905,24.6575342 22.6022194,24.6575342 C27.5197482,24.6575342 31.5068493,27.7243559 31.5068493,31.5068493" id="Fill-12"></path>
                        <path d="M76.7123288,80.1365732 C76.7123288,85.0547977 71.4994773,89.0410959 65.0690333,89.0410959 C58.637509,89.0410959 53.4246575,85.0547977 53.4246575,80.1365732 C53.4246575,75.2191749 58.637509,71.2328767 65.0690333,71.2328767 C71.4994773,71.2328767 76.7123288,75.2191749 76.7123288,80.1365732" id="Fill-13"></path>
                        <path d="M93.1506849,76.7123288 C93.1506849,82.0070855 87.6302935,86.3013699 80.8213823,86.3013699 C74.012471,86.3013699 68.4931507,82.0070855 68.4931507,76.7123288 C68.4931507,71.416739 74.012471,67.1232877 80.8213823,67.1232877 C87.6302935,67.1232877 93.1506849,71.416739 93.1506849,76.7123288" id="Fill-14"></path>
                        <path d="M49.3150685,76.0278013 C49.3150685,80.944761 44.1024519,84.9315068 37.6712329,84.9315068 C31.2400139,84.9315068 26.0273973,80.944761 26.0273973,76.0278013 C26.0273973,71.1100335 31.2400139,67.1232877 37.6712329,67.1232877 C44.1024519,67.1232877 49.3150685,71.1100335 49.3150685,76.0278013" id="Fill-15"></path>
                        <path d="M49.3150685,60.2735748 C49.3150685,69.3522033 39.5028661,76.7123288 27.3972603,76.7123288 C15.2927152,76.7123288 5.47945205,69.3522033 5.47945205,60.2735748 C5.47945205,51.1949463 15.2927152,43.8356164 27.3972603,43.8356164 C39.5028661,43.8356164 49.3150685,51.1949463 49.3150685,60.2735748" id="Fill-16"></path>
                        <path d="M117.808219,60.2735748 C117.808219,69.3522033 107.996017,76.7123288 95.890411,76.7123288 C83.7858659,76.7123288 73.9726027,69.3522033 73.9726027,60.2735748 C73.9726027,51.1949463 83.7858659,43.8356164 95.890411,43.8356164 C107.996017,43.8356164 117.808219,51.1949463 117.808219,60.2735748" id="Fill-17"></path>
                        <path d="M120.547945,31.5064515 C120.547945,40.58508 110.735743,47.9452055 98.630137,47.9452055 C86.5255919,47.9452055 76.7123288,40.58508 76.7123288,31.5064515 C76.7123288,22.427823 86.5255919,15.0684932 98.630137,15.0684932 C110.735743,15.0684932 120.547945,22.427823 120.547945,31.5064515" id="Fill-18"></path>
                        <path d="M84.9315068,16.4383562 C84.9315068,25.5172943 75.424789,32.8767123 63.6981129,32.8767123 C51.9714368,32.8767123 42.4657534,25.5172943 42.4657534,16.4383562 C42.4657534,7.35941802 51.9714368,0 63.6981129,0 C75.424789,0 84.9315068,7.35941802 84.9315068,16.4383562" id="Fill-19"></path>
                        <path d="M45.2054795,22.6023423 C45.2054795,29.0333803 38.4589918,34.2465753 30.1364719,34.2465753 C21.8149808,34.2465753 15.0684932,29.0333803 15.0684932,22.6023423 C15.0684932,16.1713042 21.8149808,10.9589041 30.1364719,10.9589041 C38.4589918,10.9589041 45.2054795,16.1713042 45.2054795,22.6023423" id="Fill-20"></path>
                        <path d="M26.0273973,40.4109589 C26.0273973,46.0860426 20.2013234,50.6849315 13.0142233,50.6849315 C5.82712321,50.6849315 0,46.0860426 0,40.4109589 C0,34.7367037 5.82712321,30.1369863 13.0142233,30.1369863 C20.2013234,30.1369863 26.0273973,34.7367037 26.0273973,40.4109589" id="Fill-21"></path>
                    </g>
                    <polygon id="Fill-22" fill="#A8B43F" points="93.3424658 34.6400243 65.7534247 34.6400243 65.7534247 23.2876712 93.3424658 23.2876712 97.6401348 28.963323"></polygon>
                    <polygon id="Fill-23" fill="#50808B" points="30.0078348 42.8592024 57.5968759 42.8592024 57.5968759 31.5068493 30.0078348 31.5068493 25.7101658 37.1825011"></polygon>
                    <polygon id="Fill-30" fill="#50808B" points="93.3424658 48.3386544 65.7534247 48.3386544 65.7534247 36.9863014 93.3424658 36.9863014 97.6401348 42.6630027"></polygon>
                    <path d="M59.7402784,82.10981 L64.1061644,82.10981 C65.3235749,82.10981 66.3111467,81.1222382 66.3111467,79.9027287 L66.3111467,21.384114 C66.3111467,20.165654 65.3235749,19.1780822 64.1061644,19.1780822 L59.7402784,19.1780822 C58.5218184,19.1780822 57.5342466,20.165654 57.5342466,21.384114 L57.5342466,79.9027287 C57.5342466,81.1222382 58.5218184,82.10981 59.7402784,82.10981" id="Fill-43" fill="#8E8785"></path>
                </g>
                <path d="M34.2105263,37.3684211 L50,37.3684211" id="Line" stroke="#FFFFFF" stroke-width="2" stroke-linecap="square"></path>
                <path d="M71.0526316,28.9473684 L86.8421053,28.9473684" id="Line" stroke="#FFFFFF" stroke-width="2" stroke-linecap="square"></path>
                <path d="M71.0526316,43.6842105 L86.8421053,43.6842105" id="Line" stroke="#FFFFFF" stroke-width="2" stroke-linecap="square"></path>
            </g>
        </g>
    </g>
</svg>
