<?xml version="1.0" encoding="UTF-8"?>
<svg width="131px" height="101px" viewBox="0 0 131 101" version="1.1" xmlns="http://www.w3.org/2000/svg" xmlns:xlink="http://www.w3.org/1999/xlink">
    <!-- Generator: Sketch 47.1 (45422) - http://www.bohemiancoding.com/sketch -->
    <title>Snakk med AG</title>
    <desc>Created with Sketch.</desc>
    <defs>
        <polygon id="path-1" points="53.7701354 48.9581048 0.148403558 48.9581048 0.148403558 0.782333919 53.7701354 0.782333919 53.7701354 48.9581048"></polygon>
        <polygon id="path-3" points="0 49.2692792 54.7129161 49.2692792 54.7129161 0.756529783 3.77738402 0.756529783 2.17195949e-20 0.756529783"></polygon>
    </defs>
    <g id="Landingssiden" stroke="none" stroke-width="1" fill="none" fill-rule="evenodd">
        <g id="Illustrasjoner-til-landingssiden" transform="translate(-103.000000, -320.000000)">
            <g id="Snakk-med-AG" transform="translate(104.000000, 320.000000)">
                <path d="M74.2268041,29.5959181 C74.2268041,40.6538247 74.9329864,44.9427162 79.6173021,53.0560971 C83.2633949,50.9931908 91.6676785,50.4923648 99.4881107,50.9642174 C108.290367,51.4956724 118.014869,51.5693476 121.277288,53.6082474 C124.410227,43.9005015 124.742268,33.6083207 124.742268,29.5959181 C124.742268,13.2516071 113.43382,0 99.4841389,0 C85.5344579,0 74.2268041,13.2516071 74.2268041,29.5959181" id="Fill-1" fill="#37373A"></path>
                <g id="Group-5" transform="translate(73.195876, 48.453608)">
                    <mask id="mask-2" fill="white">
                        <use xlink:href="#path-1"></use>
                    </mask>
                    <g id="Clip-4"></g>
                    <path d="M17.7042967,0.782333919 L26.4886365,0.782333919 L35.2729763,0.782333919 C40.0079848,0.782333919 53.3523176,11.9713354 53.3523176,22.1579404 C53.3523176,22.1579404 56.5321655,48.9587687 45.3471564,48.9587687 L0.148403558,48.9587687 L0.148403558,22.1579404 C0.148403558,11.9713354 12.968489,0.782333919 17.7042967,0.782333919" id="Fill-3" fill="#0F5FA9" mask="url(#mask-2)"></path>
                </g>
                <polygon id="Fill-6" fill="#3C84C5" points="91.0371645 50.9104007 89.6907216 50.5154639 90.104821 64.9484536 92.7150521 64.9484536 96.6477563 55.6555745 101.030928 53.1884909"></polygon>
                <path d="M115.153492,32.6176242 C115.153492,32.6176242 117.108004,31.9465296 118.451231,32.9182356 C119.795257,33.8907541 120.128467,37.0739849 118.451231,38.5534803 C116.773995,40.0321634 113.754331,41.231359 113.754331,41.231359 C113.754331,41.231359 109.747822,46.751234 109.52728,47.8480593 C109.305939,48.9456971 108.153688,51.5463918 98.3803322,51.5463918 C88.6061769,51.5463918 85.4227044,48.0016148 83.8453514,46.8129812 C81.0286495,44.6892024 79.669441,41.9065159 78.924713,38.9800235 C78.5331715,37.4412182 78.2870596,35.9349115 78.0848964,34.6235959 C76.4611976,33.7014501 76.0584691,32.5485649 76.4020668,30.9796984 C76.6010338,30.0689272 77.5391354,29.6789449 77.5391354,29.6789449 C77.5391354,29.6789449 77.5798877,26.5046512 77.7692659,24.8659129 C77.7692659,24.8659129 80.7114209,24.5336155 84.0027671,24.9585337 C87.9685235,25.471198 93.3238529,25.6556271 99.3192328,25.6556271 C105.314613,25.6556271 107.711007,25.1860234 107.711007,25.1860234 L115.153492,32.6176242 Z" id="Fill-8" fill="#E5E4E1"></path>
                <path d="M83.825975,46.6983036 C85.4041359,47.8762675 89.7183696,51.5463918 98.5136411,51.5463918 C105.49755,51.5463918 109.300845,48.8135808 109.521091,47.7253511 C109.742957,46.6371213 113.751113,41.1649734 113.751113,41.1649734 C113.751113,41.1649734 116.77302,39.9772203 118.451587,38.5104758 C120.128535,37.0437314 119.794927,33.8883545 118.451587,32.9241209 C117.107438,31.9607031 115.151943,32.6255511 115.151943,32.6255511 C115.151943,32.6255511 104.806042,21.8680653 101.930696,13.4020619 C90.9653516,23.4204651 82.1660314,15.4920504 79.2825881,20.0448318 C78.8477638,20.6354452 76.8436857,23.5566977 77.424261,29.4024658 C78.0048364,35.2490496 79.5246969,43.486639 83.825975,46.6983036" id="Fill-10" fill="#E5E4E1"></path>
                <path d="M79.3262843,24.7623269 C80.3842806,24.5475311 80.4287523,26.1050181 80.4093855,27.1755187 C80.4043645,27.4390132 80.2996409,28.3773318 80.2236086,28.6669148 C80.2236086,28.6669148 78.461238,28.9373662 78.4418713,28.8477955 C78.42107,28.7582248 78.3629698,27.9660021 78.3629698,27.9660021 C78.2869376,26.6554868 78.5530505,24.9197279 79.3262843,24.7623269" id="Fill-12" fill="#635E59"></path>
                <path d="M93.6720637,25.7785048 C95.0385681,25.9078143 95.0826252,28.1723262 94.4599515,29.5340666 C93.8372779,30.895807 92.5588877,31.5423543 91.9648511,30.1526767 C91.3700803,28.7637973 92.052231,25.6268456 93.6720637,25.7785048" id="Fill-14" fill="#635E59"></path>
                <path d="M87.628866,38.7901431 C87.628866,38.7901431 85.7447774,40.8463271 83.9034049,40.0032254 C82.2725622,39.2575867 82.483092,37.1134021 82.483092,37.1134021" id="Stroke-16" stroke="#C4B19C" stroke-width="0.8" stroke-linecap="round"></path>
                <g id="Group-21" transform="translate(76.288660, 28.865979)">
                    <path d="M0.297687265,0.861555463 C2.12628037,0.189029801 4.31706633,0.346691495 4.31706633,0.346691495" id="Fill-18" fill="#E5E4E1"></path>
                    <path d="M0.297687265,0.861555463 C2.12628037,0.189029801 4.31706633,0.346691495 4.31706633,0.346691495" id="Stroke-20" stroke="#37373A" stroke-width="0.2" stroke-linecap="round"></path>
                </g>
                <polygon id="Fill-22" fill="#E5E4E1" points="90.7216495 50.6508167 91.481882 61.8556701 95.9070008 51.4738707 96.9072165 47.4226804"></polygon>
                <path d="M95.8762887,51.6035755 L97.453863,59.7938144 C97.453863,59.7938144 100.051414,57.8629802 102.74257,55.9994252 C106.260843,53.5627805 109.547524,50.6065452 110.309278,49.2958151 C109.99457,48.89295 109.319159,48.4536082 109.319159,48.4536082 C109.319159,48.4536082 105.23199,48.9261844 102.079263,49.675173 C98.9249208,50.4241616 95.8762887,51.6035755 95.8762887,51.6035755" id="Fill-24" fill="#3C84C5"></path>
                <path d="M4.12371694,28.8659794 L4.12371694,68.0412371 C4.12371694,68.0412371 4.02899649,57.7700012 28.4853335,57.7700012 C52.9416706,57.7700012 27.7813519,28.8659794 27.7813519,28.8659794 L4.12371694,28.8659794 Z" id="Fill-26" fill="#C4AD86"></path>
                <g id="Group-30" transform="translate(1.030928, 47.422680)">
                    <mask id="mask-4" fill="white">
                        <use xlink:href="#path-3"></use>
                    </mask>
                    <g id="Clip-29"></g>
                    <path d="M36.8003962,0.756529783 L27.8361232,0.756529783 L18.8734528,0.756529783 C14.042345,0.756529783 0.425656731,12.0235928 0.425656731,22.2814567 C0.425656731,22.2814567 -2.81805269,49.2695256 8.59502866,49.2695256 L54.7129161,49.2695256 L54.7129161,22.2814567 C54.7129161,12.0235928 41.631504,0.756529783 36.8003962,0.756529783" id="Fill-28" fill="#8E9738" mask="url(#mask-4)"></path>
                </g>
                <path d="M53.6082474,29.2084743 C53.6082474,44.5816035 42.266574,56.7010309 28.6963926,56.7010309 C15.1237827,56.7010309 4.12371134,44.2391086 4.12371134,28.8659794 C4.12371134,13.4936657 15.1237827,1.03092784 28.6963926,1.03092784 C42.266574,1.03092784 53.6082474,13.8361606 53.6082474,29.2084743" id="Fill-31" fill="#C4AD86"></path>
                <path d="M11.5445943,32.6705492 C11.5445943,32.6705492 9.63679549,32.0020499 8.32518385,32.9705907 C7.01436712,33.9383073 6.6884515,37.1077027 8.32518385,38.5807091 C9.96271112,40.0528912 12.9110551,41.2456389 12.9110551,41.2456389 C12.9110551,41.2456389 16.8220426,46.7411809 17.0366699,47.8341896 C17.2528871,48.9271982 14.7783131,50.5691841 14.7783131,50.5691841 C14.7783131,50.5691841 18.3776935,59.7938144 27.919072,59.7938144 C37.4604505,59.7938144 41.8460029,50.7909181 41.8460029,50.7909181 C41.8460029,50.7909181 39.6830361,49.4052865 38.6822366,49.0986506 C38.5383568,48.6279809 40.5669828,47.9866832 42.1067354,46.8030027 C44.8571453,44.6895229 46.1838603,41.9182596 46.9104137,39.0060428 C47.2935633,37.4728632 47.532833,35.9734795 47.7299722,34.6686283 C49.31583,33.7503692 49.7093135,32.6029574 49.3738588,31.0401034 C49.1791044,30.1333843 48.263361,29.7451436 48.263361,29.7451436 C48.263361,29.7451436 48.3992916,25.341786 48.2148711,23.7113402 C48.2148711,23.7113402 45.1663677,24.623005 41.9541115,25.0458659 C38.0820749,25.5561014 32.8547064,25.7399181 27.0017388,25.7399181 C21.1495661,25.7399181 18.8101278,25.2717213 18.8101278,25.2717213 L11.5445943,32.6705492 Z" id="Fill-33" fill="#EDEAE8"></path>
                <path d="M32.3427906,29.7624512 C32.5298497,30.1970552 33.152138,29.4494328 33.7714452,29.3295718 C34.3900071,29.210573 35.017403,29.4899613 35.0315628,29.3295718 C35.1821044,27.7101544 34.4757115,25.6449231 33.1282898,25.7794434 C31.7667082,25.9156883 31.7219929,28.3180827 32.3427906,29.7624512 Z" id="Fill-35" fill="#669DB4"></path>
                <path d="M46.4475377,24.7622758 C45.388761,24.5477756 45.3441579,26.1051176 45.3639003,27.1767319 C45.3682874,27.4399821 45.472849,28.3786419 45.5488937,28.6667102 C45.5488937,28.6667102 47.3125465,28.9379377 47.3322889,28.8475285 C47.3520313,28.7588921 47.409796,27.9655961 47.409796,27.9655961 C47.4873032,26.6555498 47.2211466,24.9191622 46.4475377,24.7622758" id="Fill-37" fill="#669DB4"></path>
                <path d="M47.4226804,29.123679 C46.4845591,28.7970496 45.3608247,28.8738319 45.3608247,28.8738319" id="Stroke-39" stroke="#CBBBA0" stroke-width="0.5" stroke-linecap="round"></path>
                <path d="M38.1443299,38.1443299 C38.1443299,38.1443299 40.5148358,42.552874 43.1896563,40.8431222 C43.7501633,40.4847507 42.0367065,41.3940693 40.7435681,40.8431222 C39.2683312,40.2145914 38.1443299,38.1443299 38.1443299,38.1443299 Z" id="Stroke-43" stroke="#D19E9C" stroke-width="0.8" stroke-linecap="round" stroke-linejoin="round" transform="translate(40.721649, 39.690722) rotate(-10.000000) translate(-40.721649, -39.690722) "></path>
                <g id="Group-48" transform="translate(30.927835, 28.865979)">
                    <path d="M3.97402483,0.695600107 C3.97402483,0.695600107 1.70871689,0.56010959 0.454664211,1.82222429" id="Fill-45" fill="#EDEAE8"></path>
                    <path d="M3.97402483,0.695600107 C3.97402483,0.695600107 1.70871689,0.56010959 0.454664211,1.82222429" id="Stroke-47" stroke="#CBBBA0" stroke-width="0.5" stroke-linecap="round"></path>
                </g>
                <polygon id="Fill-49" fill="#FFFFFF" points="22.0189927 87.628866 25.7731959 87.628866 14.8824283 50.5154639 13.4020619 51.5414512"></polygon>
                <g id="Group-53" transform="translate(13.402062, 49.484536)" fill="#FFFFFF">
                    <polyline id="Fill-51" points="28.3475203 0.718838784 0.301613692 47.6272984 15.8190131 47.6272984 31.1577201 47.6272984 31.1577201 2.26835762"></polyline>
                </g>
                <polygon id="Fill-36" stroke="#525759" fill="#525759" stroke-linecap="round" points="0 100 128.865979 100 128.865979 95.8762887 0 95.8762887"></polygon>
            </g>
        </g>
    </g>
</svg>
