<?xml version="1.0" encoding="UTF-8"?>
<svg width="130px" height="100px" viewBox="0 0 130 100" version="1.1" xmlns="http://www.w3.org/2000/svg" xmlns:xlink="http://www.w3.org/1999/xlink">
    <!-- Generator: Sketch 47.1 (45422) - http://www.bohemiancoding.com/sketch -->
    <title>Group</title>
    <desc>Created with Sketch.</desc>
    <defs></defs>
    <g id="Landingssiden" stroke="none" stroke-width="1" fill="none" fill-rule="evenodd">
        <g id="Illustrasjoner-til-landingssiden" transform="translate(-112.000000, -1478.000000)">
            <g id="Group" transform="translate(112.000000, 1478.000000)">
                <g id="Group-9">
                    <g id="Dame-med-håndskade" transform="translate(0.000000, 9.871941)">
                        <path d="M2.81908913,29.0303265 L2.81908913,68.9085209 C2.81908913,68.9085209 2.71860715,58.4535867 28.3933055,58.4535867 C54.0690397,58.4535867 27.6547112,29.0303265 27.6547112,29.0303265 L2.81908913,29.0303265 Z" id="Fill-63" fill="#C4AD86"></path>
                        <path d="M53.8666255,29.0303265 L54.360023,68.9085209 C54.360023,68.9085209 54.2823308,58.4535867 28.6086684,58.4535867 C2.93293417,58.4535867 29.1711603,29.0303265 29.1711603,29.0303265 L53.8666255,29.0303265 Z" id="Fill-65" fill="#C4AD86"></path>
                        <path d="M53.9685577,28.7166374 C53.9685577,44.4792083 42.5146485,57.2570045 28.388126,57.2570045 C14.2584958,57.2570045 2.80665837,44.4792083 2.80665837,28.7166374 C2.80665837,12.9561221 14.2584958,0.177298089 28.388126,0.177298089 C42.5146485,0.177298089 53.9685577,12.9561221 53.9685577,28.7166374" id="Fill-67" fill="#C4AD86"></path>
                        <path d="M36.8428036,48.3490346 L28.4582562,48.3490346 L20.0737087,48.3490346 C15.5530558,48.3490346 0.527374981,57.8511843 0.527374981,66.5012754 L0.527374981,89.2601831 L56.6501833,89.2601831 L56.6501833,66.5012754 C56.6501833,57.8511843 41.3624207,48.3490346 36.8428036,48.3490346" id="Fill-69" fill="#8E9738"></path>
                        <path d="M36.3471271,47.686505 C35.3775278,47.686505 28.4587741,50.6240003 28.4587741,50.6240003 C28.4587741,50.6240003 20.311447,48.3227225 19.6826578,48.2014404 C19.0528326,48.0791304 14.5197489,50.4626334 14.5197489,50.4626334 C15.6550916,52.1184433 18.8860532,59.8250003 28.4587741,59.8250003 C38.031495,59.8250003 41.2697079,52.1184433 42.4071224,50.4626334 C42.4071224,50.4626334 37.3167263,47.686505 36.3471271,47.686505" id="Fill-71" fill="#E7E5E2"></path>
                        <path d="M7.36833283,23.7276233 C7.36833283,23.7276233 7.25852778,23.9496314 7.11453815,23.8499333 C6.91564599,23.7728472 6.90528703,23.7276233 6.68049745,23.7276233 C5.69950333,23.7276233 5.11007814,24.5159574 5.11007814,25.4882704 L5.11007814,32.5997225 C5.11007814,33.5740911 5.69950333,34.3613974 6.68049745,34.3613974 C7.07310228,34.3613974 7.33000465,34.2318927 7.6231634,34.0160515 C10.0109052,44.8512773 18.4286013,52.8610397 28.5089115,52.8610397 C38.5902577,52.8610397 47.0328153,44.8512773 49.4205571,34.0160515 C49.7147517,34.2318927 49.9871925,34.3613974 50.3797974,34.3613974 C51.3618274,34.3613974 52.0683089,33.5740911 52.0683089,32.5997225 L52.0683089,25.4882704 C52.0683089,24.5159574 51.3473248,23.7276233 50.3684025,23.7276233 C50.1405052,23.7276233 49.9478285,23.9568261 49.7644748,23.8499333 C28.3877116,11.4072048 7.36833283,23.7276233 7.36833283,23.7276233" id="Fill-73" fill="#E7E5E2"></path>
                        <polyline id="Fill-75" fill="#FFFFFF" points="42.2428292 50.1813204 18.7963446 89.2598748 45.1982424 89.2598748 45.1982424 51.7590164"></polyline>
                        <polyline id="Fill-77" fill="#FFFFFF" points="14.385911 50.0086475 26.3577686 88.1241392 22.2898024 88.1241392"></polyline>
                    </g>
                    <g id="Undrende-dame" transform="translate(18.846433, 35.897967)">
                        <path d="M0.235813396,1.25916482 C0.331909342,1.04106661 0.886487148,0.0475081038 1.86828669,0.0475081038 C2.84892845,0.0475081038 3.28193909,0.591022689 3.34214378,0.68449335 C4.06344226,1.80614128 3.70916083,3.98481546 1.87639117,4.08405591 C0.201079922,4.1740647 -0.267821981,2.41081568 0.235813396,1.25916482 Z" id="Fill-73" fill="#669DB4"></path>
                        <path d="M19.4690009,1.25916482 C19.3740627,1.04106661 18.8194849,0.0475081038 17.8376854,0.0475081038 C16.8570436,0.0475081038 16.424033,0.591022689 16.3638283,0.68449335 C15.6425298,1.80614128 15.9956535,3.98481546 17.8295809,4.08405591 C19.5048922,4.1740647 19.9737941,2.41081568 19.4690009,1.25916482 Z" id="Fill-75" fill="#5B93AB"></path>
                        <path d="M10.6175112,6.50085675 C11.5284959,6.36124885 12.4163112,6.39483872 12.8333631,6.90498486 C13.8496641,8.14990938 13.5579383,9.58692597 11.8465507,10.6481559 C10.9913835,11.178246 9.7802477,11.3955305 9.03776878,11.0680293" id="Stroke-77" stroke="#D1BFA3" stroke-width="0.5" stroke-linecap="round"></path>
                        <path d="M3.57544089,16.974073 C3.57544089,16.974073 4.35267415,17.8673536 6.51692121,17.8505586 L8.68222143,17.8337637" id="Stroke-79" stroke="#D19E9C" stroke-width="0.8" stroke-linecap="round"></path>
                    </g>
                    <path d="M51.3739137,22.281585 C51.0112299,11.9600365 43.4945558,3.42693925 33.5409012,1.30801328 L33.5409012,0 L23.8958459,0 L23.8958459,1.30801328 C13.9421913,3.42693925 6.42657765,11.9600365 6.0628334,22.281585 L3.58979669,22.281585 L3.58979669,26.3491083 L53.8469504,26.3491083 L53.8469504,22.281585 L51.3739137,22.281585 Z" id="Fill-11" fill="#10546F"></path>
                </g>
                <g id="Mustein" transform="translate(65.000000, 47.000000)" fill="#A33C28">
                    <g id="Page-1">
                        <polygon id="Fill-1" points="49.779881 23.6273408 49.7814099 29.9739759 64.8544773 29.9701536 64.8529483 23.6235184"></polygon>
                        <polygon id="Fill-2" points="33.1778723 23.6307809 33.1801658 29.9774161 48.2524687 29.9743582 48.2509397 23.6269586"></polygon>
                        <polygon id="Fill-3" points="16.6020086 23.6349091 16.6035376 29.9815442 31.6766049 29.9777219 31.675076 23.6318512"></polygon>
                        <polygon id="Fill-4" points="0 23.6383492 0.00152894126 29.9849843 15.0738318 29.981162 15.0730674 23.6345268"></polygon>
                        <polygon id="Fill-5" points="49.7764409 7.87710535 49.7779698 14.222976 64.8510372 14.2191537 64.8495082 7.87404747"></polygon>
                        <polygon id="Fill-6" points="33.1748145 7.88054547 48.2478818 7.87748758 48.2494108 14.2233583 33.1763434 14.2264161"></polygon>
                        <polygon id="Fill-7" points="16.5983392 7.88390914 31.6714065 7.88085125 31.6729355 14.2267219 16.5998681 14.2305443"></polygon>
                        <polygon id="Fill-8" points="41.4775771 15.753752 56.5506444 15.7506941 56.5514089 22.0965648 41.4783415 22.1003872"></polygon>
                        <polygon id="Fill-9" points="56.5465927 -7.64470628e-05 41.4742898 0.00374590608 41.4750543 6.34961659 56.5481217 6.3465587"></polygon>
                        <polygon id="Fill-10" points="24.9011018 15.7574979 39.9741691 15.75444 39.9756981 22.1003107 24.9026307 22.1041331"></polygon>
                        <polygon id="Fill-11" points="24.8975087 0.00680378859 24.8990377 6.35343894 39.9721051 6.35038106 39.9705761 0.00298143545"></polygon>
                        <polygon id="Fill-12" points="8.29924603 15.7611674 23.3723134 15.7581095 23.3738423 22.1039802 8.30077497 22.1078025"></polygon>
                        <polygon id="Fill-13" points="58.0795092 15.750159 58.0810382 22.0967942 64.8534835 22.0952652 64.8519545 15.7486301"></polygon>
                    </g>
                </g>
            </g>
        </g>
    </g>
</svg>
